<?xml version="1.0" standalone="no"?>
<!DOCTYPE svg PUBLIC "-//W3C//DTD SVG 20010904//EN"
 "http://www.w3.org/TR/2001/REC-SVG-20010904/DTD/svg10.dtd">
<svg version="1.0" xmlns="http://www.w3.org/2000/svg"
 width="1022.000000pt" height="1022.000000pt" viewBox="0 0 1022.000000 1022.000000"
 preserveAspectRatio="xMidYMid meet">
<metadata>
Created by potrace 1.11, written by Peter Selinger 2001-2013
</metadata>
<g transform="translate(0.000000,1022.000000) scale(0.100000,-0.100000)"
fill="#000000" stroke="none">
<path d="M10050 9841 c-19 -10 -60 -29 -90 -42 -30 -12 -57 -26 -60 -29 -3 -3
-29 -16 -58 -28 -61 -26 -174 -79 -322 -149 -113 -55 -179 -83 -183 -80 -1 1
-17 -8 -34 -21 -18 -13 -33 -20 -33 -16 0 5 -5 3 -12 -4 -7 -7 -20 -12 -30
-12 -10 0 -18 -4 -18 -10 0 -5 -4 -10 -9 -10 -6 0 -49 -18 -96 -40 -47 -22
-90 -40 -96 -40 -5 0 -9 -5 -9 -11 0 -5 -4 -8 -9 -4 -5 3 -12 1 -16 -5 -4 -6
-11 -8 -16 -5 -5 4 -9 2 -9 -4 0 -5 -10 -13 -22 -17 -21 -6 -91 -38 -248 -112
-30 -14 -57 -26 -60 -27 -3 0 -24 -11 -46 -23 -23 -11 -44 -18 -48 -15 -3 4
-6 1 -6 -5 0 -7 -9 -12 -20 -12 -11 0 -20 -4 -20 -10 0 -5 -9 -10 -20 -10 -11
0 -20 -4 -20 -10 0 -5 -9 -10 -20 -10 -11 0 -20 -5 -20 -12 0 -6 -3 -9 -6 -6
-3 3 -62 -21 -131 -53 -180 -85 -211 -99 -222 -99 -6 0 -11 -4 -11 -10 0 -5
-4 -10 -10 -10 -5 0 -35 -12 -67 -27 -32 -15 -60 -28 -63 -28 -3 -1 -34 -15
-70 -32 -36 -17 -80 -37 -97 -44 -18 -8 -33 -17 -33 -20 0 -4 -12 -10 -26 -13
-14 -4 -73 -30 -132 -57 -59 -28 -134 -64 -167 -79 -33 -15 -94 -44 -136 -64
-42 -19 -105 -48 -140 -64 -35 -16 -100 -47 -144 -68 -44 -20 -82 -38 -85 -39
-3 0 -25 -11 -50 -24 -25 -13 -46 -24 -47 -23 -2 1 -97 -42 -243 -111 -25 -11
-48 -20 -52 -19 -5 1 -8 -3 -8 -8 0 -6 -9 -10 -20 -10 -11 0 -20 -4 -20 -10 0
-5 -6 -10 -13 -10 -7 0 -37 -11 -65 -25 -29 -14 -56 -25 -62 -25 -5 0 -10 -4
-10 -9 0 -5 -13 -12 -30 -16 -16 -4 -32 -11 -35 -16 -4 -5 -15 -9 -26 -9 -10
0 -19 -4 -19 -10 0 -5 -5 -10 -11 -10 -6 0 -41 -14 -77 -31 -37 -17 -101 -47
-142 -66 -79 -37 -127 -59 -305 -143 -101 -48 -152 -71 -165 -75 -3 -1 -48
-22 -100 -47 -52 -25 -117 -55 -145 -67 -27 -13 -57 -27 -65 -32 -25 -15 -101
-47 -110 -46 -3 0 -23 -11 -45 -25 -22 -14 -55 -29 -73 -33 -17 -3 -32 -11
-32 -16 0 -5 -4 -9 -10 -9 -5 0 -65 -27 -134 -59 -68 -33 -141 -65 -160 -72
-20 -7 -36 -16 -36 -20 0 -4 -13 -10 -30 -14 -16 -4 -32 -11 -35 -16 -4 -5
-15 -9 -25 -9 -10 0 -20 -5 -22 -11 -2 -5 -10 -11 -18 -13 -8 -1 -49 -18 -90
-38 -41 -19 -95 -45 -120 -56 -25 -11 -132 -61 -237 -110 -106 -50 -193 -88
-193 -84 0 4 -4 2 -8 -4 -4 -6 -41 -26 -82 -44 -41 -18 -78 -38 -82 -44 -4 -6
-8 -8 -8 -3 0 4 -31 -8 -69 -27 -38 -19 -71 -32 -75 -29 -3 4 -6 1 -6 -5 0 -7
-4 -12 -9 -12 -8 0 -116 -48 -247 -111 -22 -10 -45 -19 -50 -19 -6 0 -16 -6
-22 -12 -7 -7 -16 -13 -20 -14 -4 0 -38 -15 -77 -34 -38 -19 -72 -35 -75 -35
-3 -1 -31 -13 -62 -28 -31 -15 -62 -27 -67 -27 -6 0 -11 -4 -11 -9 0 -5 -10
-11 -23 -15 -13 -3 -71 -28 -130 -56 -58 -27 -110 -50 -116 -50 -6 0 -11 -4
-11 -10 0 -5 -5 -10 -11 -10 -5 0 -36 -12 -67 -26 -31 -15 -84 -39 -117 -54
-33 -15 -108 -50 -166 -79 -59 -28 -112 -51 -118 -51 -6 0 -11 -5 -11 -10 0
-6 -3 -9 -7 -8 -15 3 -63 -14 -63 -23 0 -5 -6 -9 -14 -9 -7 0 -53 -20 -102
-44 -49 -24 -112 -53 -139 -66 -28 -12 -84 -38 -125 -57 -41 -20 -103 -48
-137 -64 -34 -15 -101 -47 -149 -70 -49 -23 -94 -42 -101 -42 -7 0 -10 -4 -7
-8 2 -4 -11 -11 -31 -15 -19 -3 -35 -10 -35 -15 0 -5 -4 -9 -9 -9 -9 0 -47
-17 -274 -124 -55 -25 -100 -46 -102 -46 -2 0 -59 -26 -127 -59 -68 -32 -148
-70 -178 -83 -30 -14 -98 -46 -150 -70 -52 -25 -112 -52 -133 -62 -20 -9 -37
-19 -37 -21 0 -2 71 -26 158 -55 86 -28 164 -54 172 -57 8 -3 23 -8 33 -10 10
-1 31 -10 46 -17 15 -8 39 -16 52 -18 13 -2 29 -6 34 -9 6 -4 102 -36 215 -73
113 -37 214 -71 225 -76 25 -10 174 -61 195 -65 8 -2 76 -25 150 -50 74 -26
143 -48 153 -50 9 -2 23 -7 30 -12 6 -4 17 -8 22 -9 16 -3 148 -45 170 -54 11
-5 38 -14 60 -21 22 -6 49 -16 60 -21 11 -4 29 -10 40 -13 20 -4 906 -300 935
-312 8 -3 19 -5 23 -4 5 1 11 -8 14 -19 3 -11 9 -20 12 -20 4 0 8 -7 9 -15 1
-8 3 -22 4 -30 1 -8 4 -15 8 -15 3 0 7 -10 7 -22 1 -13 6 -32 12 -43 10 -21
22 -54 27 -70 3 -13 53 -156 61 -175 7 -17 12 -33 16 -55 2 -8 9 -21 15 -27 7
-7 12 -20 12 -30 0 -9 11 -47 24 -83 13 -36 21 -65 17 -65 -3 0 0 -4 7 -8 7
-5 15 -20 17 -33 3 -13 23 -76 46 -139 23 -63 46 -131 51 -150 6 -19 13 -39
16 -45 4 -5 7 -14 9 -20 1 -5 11 -37 23 -70 12 -33 24 -67 25 -75 2 -8 15 -43
29 -78 13 -34 25 -65 26 -67 1 -7 6 -22 35 -105 15 -41 31 -91 37 -110 5 -19
16 -48 23 -65 11 -24 44 -121 50 -145 1 -3 4 -12 8 -20 12 -33 49 -136 52
-145 1 -5 4 -17 8 -25 14 -38 69 -197 72 -210 8 -27 45 -135 55 -155 5 -11 14
-38 21 -60 6 -22 14 -44 18 -50 3 -5 7 -18 8 -28 2 -10 10 -31 18 -47 8 -16
15 -33 15 -39 0 -5 5 -22 12 -38 6 -15 12 -32 14 -38 5 -19 201 -580 211 -605
3 -8 7 -17 8 -20 5 -19 28 -89 35 -105 5 -11 14 -38 21 -60 6 -22 16 -46 22
-52 5 -7 7 -13 3 -13 -3 0 4 -24 15 -52 12 -29 23 -60 25 -68 2 -8 11 -35 20
-60 44 -122 87 -246 87 -257 1 -21 16 -15 34 15 35 56 78 128 90 147 6 11 58
95 115 187 57 92 112 183 123 201 38 64 79 132 112 184 19 29 33 55 33 58 0 3
4 11 10 18 12 13 199 314 223 357 24 45 42 75 47 80 8 8 70 111 70 116 0 3 11
20 25 38 14 18 25 38 25 44 0 6 3 12 8 14 4 2 14 15 22 30 32 58 114 193 120
198 4 3 17 25 31 50 13 25 26 47 29 50 3 3 13 19 23 35 40 67 111 184 148 244
21 34 39 67 39 71 0 4 6 13 14 19 11 10 21 6 48 -17 18 -16 46 -40 62 -53 16
-13 34 -28 40 -34 6 -5 38 -32 71 -60 33 -27 65 -55 71 -60 6 -6 31 -27 54
-46 23 -18 55 -45 70 -59 15 -14 49 -43 76 -65 48 -40 86 -72 185 -156 141
-121 163 -139 171 -139 5 0 7 -4 3 -9 -3 -5 3 -12 12 -15 10 -3 40 -26 66 -51
27 -25 50 -45 53 -45 2 0 18 -13 36 -30 18 -16 56 -49 84 -72 28 -24 79 -68
114 -98 35 -30 72 -62 84 -70 12 -8 26 -19 31 -25 6 -6 39 -36 75 -66 36 -29
67 -56 70 -59 3 -3 32 -27 65 -55 33 -27 65 -54 71 -60 10 -10 29 -25 193
-164 42 -35 84 -72 94 -82 10 -11 21 -19 25 -19 4 0 25 -17 47 -37 38 -36 121
-107 169 -145 11 -10 31 -28 44 -40 19 -19 24 -21 32 -8 7 12 48 167 66 250 8
37 12 55 14 58 2 1 3 5 4 10 8 31 17 71 22 92 7 34 9 42 17 65 3 11 8 31 11
45 8 40 13 62 26 110 7 25 14 53 16 62 6 29 10 45 54 218 23 91 44 176 47 190
10 48 11 55 13 58 2 1 3 5 4 10 14 62 29 120 33 132 3 8 7 24 9 35 1 11 21 94
44 185 23 91 44 172 45 180 2 8 13 53 25 100 11 47 23 94 25 105 2 11 5 22 6
25 1 3 3 10 4 15 2 6 4 12 5 15 1 3 3 13 5 24 2 10 9 41 16 70 7 28 12 54 11
59 -1 4 1 7 5 7 5 0 9 10 10 23 1 12 18 87 38 167 20 80 38 152 40 160 2 8 4
16 5 18 3 2 3 2 15 57 4 22 9 45 11 50 2 6 5 19 7 30 3 11 10 40 17 65 7 25
15 59 17 75 3 17 9 38 15 48 5 10 7 21 4 24 -3 3 -1 13 3 22 5 9 12 33 15 54
3 21 11 47 16 58 6 10 9 19 6 19 -2 0 2 24 10 53 8 28 17 60 19 71 2 10 14 57
26 105 12 47 23 92 24 101 2 8 4 15 5 15 2 0 9 39 14 71 1 11 6 25 10 32 4 7
9 22 12 35 9 48 13 69 18 85 3 9 7 28 10 42 3 14 17 70 31 125 14 55 28 108
30 118 2 10 6 26 9 35 3 9 7 28 10 42 3 14 12 52 21 85 23 88 36 149 37 162 0
5 4 14 10 21 6 6 8 12 5 12 -3 0 6 42 19 93 14 50 26 101 28 112 3 17 32 132
40 160 1 6 6 28 11 50 4 22 10 44 13 50 3 5 7 16 8 25 1 8 4 24 7 35 6 23 67
270 73 294 2 9 8 36 15 61 6 25 13 54 15 65 11 43 13 50 14 50 1 0 4 11 6 25
3 14 10 43 16 65 6 22 12 49 14 60 2 11 33 137 69 280 36 143 68 271 70 285 2
14 4 26 6 28 1 1 3 7 4 12 1 6 3 11 5 13 2 3 9 35 15 67 2 14 5 25 6 25 1 0 3
9 5 20 2 11 26 110 54 220 29 110 53 207 55 215 2 8 8 33 14 55 6 22 12 51 15
65 2 14 5 25 6 25 1 0 3 7 5 15 2 8 6 26 9 40 2 14 28 117 56 230 28 113 53
212 55 220 2 8 20 82 40 164 20 82 39 156 40 165 2 9 4 17 5 19 2 1 4 7 5 12
1 6 4 11 5 13 1 1 4 13 5 27 4 28 8 46 18 75 3 11 9 34 12 50 8 38 13 60 15
60 1 0 3 10 6 23 2 12 36 149 75 305 39 155 73 293 75 307 3 14 8 34 11 45 4
11 8 22 8 25 1 3 7 32 15 65 8 33 14 62 15 65 0 3 4 14 8 25 3 11 8 31 11 45
6 28 71 296 85 350 11 43 28 108 35 135 10 37 -6 47 -44 26z"/>
</g>
</svg>
