<svg xmlns="http://www.w3.org/2000/svg" viewBox="0 0 312.698 1274.367"><defs><style>.a{fill:#fff;fill-rule:evenodd;}</style></defs><path class="a" d="M1274.367-252V60.7H0V-244.925c16.571,13.747,36.3,20.629,56.661,26.264q19.09,5.283,38.013,11.172c24.563,7.684,46.083,20.478,63.686,39.366,11.731,12.586,23.073,25.534,34.572,38.333,26.26,29.23,57.9,49.766,97.492,53.638,21.874,2.139,44.322.563,66.336-1.35,43.146-3.748,85.315-1.182,126.113,14.393,19.168,7.318,38.326,14.667,57.38,22.272C588.728-21.491,638.686-17.791,689.71-27,719.4-32.356,746.043-45.915,771.8-60.789,816.164-86.409,863.523-95,914.175-89.924c26.943,2.7,54.091,4.771,81.139,4.672,35.59-.132,68.224-11.005,96.451-33.508,17.7-14.107,32.108-31.176,45.049-49.555a101.509,101.509,0,0,1,41.248-34.612,327.589,327.589,0,0,1,34.945-13.494C1236.078-223.908,1258.56-232.127,1274.367-252Z" transform="translate(60.698) rotate(90)"/></svg>
