<svg xmlns="http://www.w3.org/2000/svg" viewBox="0 0 1091.66 683.9"><title>Asset 1</title><g id="Layer_2" data-name="Layer 2"><g id="Layer_1-2" data-name="Layer 1"><path d="M131.06,273.2l60.11,156.71" style="fill:#ebf8ff"/><path d="M132.64,272.6a1.69,1.69,0,0,0-3.18,1.14l0,.07L189.6,430.52a1.69,1.69,0,1,0,3.18-1.13l0-.08Z" style="fill:#1f8ced"/><path d="M131.06,273.2,46.28,429.91" style="fill:#ebf8ff"/><path d="M131.86,271.72a1.69,1.69,0,0,0-2.29.68L44.79,429.11a1.69,1.69,0,0,0,3,1.61L132.54,274a1.68,1.68,0,0,0-.68-2.29Z" style="fill:#1f8ced"/><path d="M131.06,273.2,97.35,429.91" style="fill:#ebf8ff"/><path d="M131.42,271.55a1.7,1.7,0,0,0-2,1.3h0L95.7,429.56a1.69,1.69,0,1,0,3.27.84l0-.13,33.71-156.71a1.69,1.69,0,0,0-1.29-2Z" style="fill:#1f8ced"/><path d="M81.29,191.32C26.6,228.6-8,273.14,4.07,290.79s83.58,27.36,138.26-9.92,71.8-107.43,59.76-125.08S136,154,81.29,191.32Z" style="fill:#6ebdff"/><path d="M157.21,151.34c-23,6.76-50.29,20.46-76.88,38.59s-49.32,38.53-64,57.45C1.25,266.79-3.6,282.55,2.67,291.74c3.24,4.76,10.12,8.84,19.9,11.8s21.77,4.57,34.48,4.57h.16c18,0,53.14-3.4,86.08-25.85s48.92-53.92,55.52-70.68c4.68-11.88,7.58-23.6,8.4-33.91s-.48-18.08-3.72-22.84c-6.27-9.19-22.71-10.43-46.28-3.5Zm46.63,26.06c-.79,10-3.62,21.38-8.18,32.95-6.45,16.4-22.09,47.18-54.28,69.12S74.83,304.72,57.2,304.74h-.15c-12.38,0-24-1.53-33.5-4.42-8.9-2.7-15.32-6.43-18.09-10.48C.16,282.07,5.1,267.35,19,249.45c14.48-18.65,36.94-38.8,63.25-56.73l-.95-1.4.95,1.4c26.3-17.94,53.27-31.48,75.92-38.15,21.74-6.39,37.24-5.6,42.54,2.17,2.76,4,3.88,11.39,3.14,20.66Z" style="fill:#1f8ced"/><ellipse cx="103.08" cy="223.29" rx="119.83" ry="38.69" transform="matrix(0.83, -0.56, 0.56, 0.83, -107.87, 96.86)" style="fill:#6ebdff"/><path d="M157.21,151.34c-23,6.76-50.29,20.46-76.88,38.59s-49.32,38.53-64,57.45C1.25,266.79-3.6,282.55,2.67,291.74c3.6,5.28,10.53,7.93,20.25,7.93,7.22,0,16-1.47,26-4.42,23-6.76,50.29-20.47,76.87-38.6s49.33-38.53,64-57.45c15.07-19.41,19.92-35.17,13.65-44.36S180.78,144.4,157.21,151.34Zm30,45.79c-14.48,18.65-36.94,38.8-63.25,56.73S70.65,285.34,48,292c-21.74,6.39-37.24,5.6-42.54-2.17S5.1,267.35,19,249.45c14.48-18.65,36.94-38.8,63.25-56.73l-.95-1.4.95,1.4c26.3-17.94,53.27-31.48,75.92-38.14,21.74-6.4,37.24-5.6,42.54,2.16s.36,22.49-13.53,40.39Z" style="fill:#1f8ced"/><path d="M101.59,269.89c7.67-4.41,15.47-9.3,23.28-14.63s15.22-10.8,22.14-16.33L34,122Z" style="fill:#6ebdff"/><path d="M35.21,120.79a1.69,1.69,0,0,0-2.75,1.87L100.05,270.6a1.69,1.69,0,0,0,2.24.83l.14-.07c7.83-4.51,15.7-9.46,23.4-14.7s15.18-10.76,22.24-16.4a1.69,1.69,0,0,0,.26-2.37l-.1-.12Zm88.71,133.07c-7.1,4.84-14.34,9.43-21.57,13.64L39.63,130.22,144.5,238.76C137.94,244,131,249,123.92,253.86Z" style="fill:#1f8ced"/><path d="M187.11,146.65,34.29,120.3a1.69,1.69,0,1,0-.65,3.32h.07L186.53,150l.29,0a1.69,1.69,0,0,0,.29-3.35Z" style="fill:#1f8ced"/><path d="M34.34,120.3a1.69,1.69,0,0,0-2,1.32L1,273.5a1.69,1.69,0,1,0,3.29.74l0-.06L35.65,122.3a1.69,1.69,0,0,0-1.31-2Z" style="fill:#1f8ced"/><ellipse cx="34" cy="121.96" rx="7.86" ry="6.03" transform="translate(-62.79 40.34) rotate(-34.28)" style="fill:#6ebdff"/><path d="M29.65,115.58c-4.35,3-5.94,8.25-3.54,11.76a7.21,7.21,0,0,0,6.13,3,11.31,11.31,0,0,0,10.36-7.42,7,7,0,0,0-.71-6.3C39.49,113.07,34,112.62,29.65,115.58Zm9.74,6.24a7.44,7.44,0,0,1-3,3.73c-2.76,1.88-6.22,1.83-7.54-.11s-.11-5.18,2.66-7.06,6.22-1.84,7.54.11a3.73,3.73,0,0,1,.29,3.33Z" style="fill:#1f8ced"/><path d="M856.32,379.64C847.06,468.18,884.09,491,884.09,491h.38s23.28-48.21,39-63.83L897,313.05C882.17,319.16,860.53,339.49,856.32,379.64Z" style="fill:#6ebdff"/><path d="M922.3,426c-6.64,6.59-15.28,19.43-25.7,38.15-6.09,11-11,20.82-12.87,24.56-3.59-2.79-10.12-9.68-15.62-21.19a117.27,117.27,0,0,1-9.72-33.6c-2.34-15.93-2.47-34.12-.39-54.06,4-37.71,23.83-58.69,39.66-65.21a1.69,1.69,0,0,0-1.28-3.12c-5.26,2.16-15.52,7.79-25.07,21.11-9.14,12.73-14.74,28.5-16.67,46.87-2.12,20.33-2,38.9.44,55.17a120.53,120.53,0,0,0,10.13,34.61c8.22,17,17.6,22.93,18,23.18a1.76,1.76,0,0,0,.89.25h.4a1.69,1.69,0,0,0,1.5-1c.23-.48,23.33-48.12,38.69-63.36a1.69,1.69,0,1,0-2.38-2.4Z" style="fill:#1f8ced"/><path d="M1047.79,313.05l-26.47,114.11c15.74,15.62,39,63.82,39,63.82h.39s37-22.81,27.76-111.34c-4.2-40.15-25.85-60.48-40.7-66.59Z" style="fill:#6ebdff"/><path d="M1073.51,332.6c-9.56-13.33-19.81-19-25.07-21.11a1.69,1.69,0,1,0-1.3,3.12h0c15.83,6.52,35.71,27.5,39.66,65.21,2.09,19.94,2,38.13-.38,54.06a117.6,117.6,0,0,1-9.73,33.6c-5.5,11.51-12,18.4-15.61,21.19-1.84-3.74-6.79-13.6-12.88-24.56-10.41-18.72-19.06-31.56-25.7-38.15a1.69,1.69,0,1,0-2.38,2.4c15.36,15.24,38.46,62.88,38.69,63.36a1.69,1.69,0,0,0,1.5,1h.4a1.68,1.68,0,0,0,.89-.26c.4-.24,9.77-6.15,18-23.17a120.53,120.53,0,0,0,10.13-34.61c2.42-16.27,2.56-34.84.44-55.17-1.92-18.37-7.53-34.14-16.66-46.87Z" style="fill:#1f8ced"/><path d="M972.41,90.33a25.4,25.4,0,0,0-18.06,7.53c-2.83,2.85-69.25,70.85-69.25,157.34,0,14.95,1.93,32.87,5.91,54.8,3.26,18,7.92,100.79,13.86,123.47a25.41,25.41,0,0,0,24.6,19h85.88a25.43,25.43,0,0,0,24.6-19c5.93-22.68,10.6-105.51,13.85-123.47,4-21.93,5.91-39.85,5.91-54.8,0-86.49-66.42-154.49-69.24-157.34a25.43,25.43,0,0,0-18.06-7.53Z" style="fill:#6ebdff"/><path d="M972.41,88.64a27.34,27.34,0,0,0-19.27,8C950.3,99.54,883.41,168,883.41,255.2c0,15.05,1.94,33.08,5.94,55.1,1.27,7,2.76,24.07,4.49,43.81,2.7,30.9,5.76,65.93,9.39,79.79a27.11,27.11,0,0,0,26.24,20.25h85.88a27.11,27.11,0,0,0,26.23-20.25c3.63-13.86,6.69-48.89,9.4-79.79,1.72-19.74,3.21-36.79,4.48-43.81,4-22,5.94-40.05,5.94-55.1,0-87.18-66.89-155.66-69.73-158.53a27.31,27.31,0,0,0-19.26-8Zm79.73,221.06c-1.3,7.17-2.8,24.29-4.53,44.11-2.56,29.25-5.74,65.65-9.3,79.23a23.73,23.73,0,0,1-23,17.73H929.47a23.73,23.73,0,0,1-23-17.73c-3.56-13.58-6.74-50-9.3-79.23-1.73-19.82-3.23-36.94-4.53-44.11-4-21.83-5.89-39.66-5.89-54.5,0-85.8,66-153.32,68.76-156.15a23.73,23.73,0,0,1,33.57-.15l.15.15c2.81,2.83,68.76,70.35,68.76,156.15,0,14.84-1.92,32.67-5.88,54.5Z" style="fill:#1f8ced"/><path d="M972.41,90.33a25.44,25.44,0,0,0-18.07,7.53c-1.81,1.83-29.93,30.61-49.77,73.92h135.67c-19.84-43.31-48-72.09-49.77-73.92a25.43,25.43,0,0,0-18.06-7.53Z" style="fill:#6ebdff"/><path d="M991.67,96.67a27.12,27.12,0,0,0-38.36-.17l-.16.17c-1.22,1.22-30,30.56-50.11,74.4a1.69,1.69,0,0,0,.83,2.24,1.71,1.71,0,0,0,.7.16h135.67a1.7,1.7,0,0,0,1.54-2.4C1021.69,127.23,992.89,97.89,991.67,96.67Zm-84.45,73.42c19.78-42,47.15-69.86,48.33-71a23.75,23.75,0,0,1,33.58-.15l.15.15c1.17,1.19,28.55,29.07,48.32,71.05Z" style="fill:#1f8ced"/><path d="M972.4,231A47.62,47.62,0,1,0,1020,278.58,47.62,47.62,0,0,0,972.4,231Z" style="fill:#6ebdff"/><path d="M972.4,229.27a49.31,49.31,0,1,0,49.3,49.31,49.31,49.31,0,0,0-49.3-49.31Zm0,95.24a45.93,45.93,0,1,1,45.93-45.93h0a46,46,0,0,1-45.93,45.93Z" style="fill:#1f8ced"/><path d="M972.4,247.12a31.46,31.46,0,1,0,31.46,31.46,31.46,31.46,0,0,0-31.46-31.46Z" style="fill:#6ebdff"/><path d="M972.39,245.43a33.15,33.15,0,1,0,33.16,33.15A33.15,33.15,0,0,0,972.39,245.43Zm0,62.92a29.78,29.78,0,1,1,29.78-29.77A29.77,29.77,0,0,1,972.39,308.35Z" style="fill:#1f8ced"/><path d="M972.4,259.81l18.76,18.77A18.79,18.79,0,0,0,972.4,259.81Z" style="fill:#6ebdff"/><path d="M972.4,258.13a1.69,1.69,0,0,0,0,3.37,17.09,17.09,0,0,1,17.07,17.08,1.69,1.69,0,0,0,3.38,0A20.47,20.47,0,0,0,972.4,258.13Z" style="fill:#1f8ced"/><path d="M8.66,429.92H404.4v46.46H8.66Z" style="fill:#6ebdff"/><path d="M404.4,428.27H8.66A1.65,1.65,0,0,0,7,429.91v46.46A1.64,1.64,0,0,0,8.66,478H404.4a1.64,1.64,0,0,0,1.64-1.65h0V429.91a1.64,1.64,0,0,0-1.64-1.64Zm-1.64,46.46H10.31V431.56H402.76Z" style="fill:#1f8ced"/><path d="M28.94,476.38H404.4v162.3H28.94Z" style="fill:#6ebdff"/><path d="M404.4,474.73H28.94a1.64,1.64,0,0,0-1.64,1.65h0V638.67a1.64,1.64,0,0,0,1.64,1.65H404.4a1.64,1.64,0,0,0,1.64-1.65h0V476.38a1.64,1.64,0,0,0-1.64-1.65ZM402.76,637H30.58V478H402.76Z" style="fill:#1f8ced"/><path d="M65.81,529.25l2.48,1.29L51.91,476.38ZM99.9,635V546.88L68.29,530.54Z" style="fill:#6ebdff"/><path d="M100.66,545.42,67.21,528.13,53.49,476a1.64,1.64,0,0,0-3.17.83l13.9,52.88a1.61,1.61,0,0,0,.83,1l33.2,17.17V635a1.64,1.64,0,0,0,3.28,0V546.88a1.63,1.63,0,0,0-.87-1.46Z" style="fill:#1f8ced"/><path d="M685.64,491h395.74v34H685.64Z" style="fill:#6ebdff"/><path d="M1081.38,489.3H685.64A1.69,1.69,0,0,0,684,491v34a1.69,1.69,0,0,0,1.69,1.69h395.74a1.69,1.69,0,0,0,1.69-1.69V491A1.69,1.69,0,0,0,1081.38,489.3Zm-1.69,34H687.33V492.67h392.36Z" style="fill:#1f8ced"/><path d="M685.64,525H1061.1V638.68H685.64Z" style="fill:#6ebdff"/><path d="M1061.1,523.31H685.64A1.69,1.69,0,0,0,684,525V638.68a1.69,1.69,0,0,0,1.69,1.69H1061.1a1.69,1.69,0,0,0,1.69-1.69V525A1.69,1.69,0,0,0,1061.1,523.31ZM1059.41,637H687.33V526.69h372.08Z" style="fill:#1f8ced"/><path d="M872.1,594.21V526l-24.27,76.2Zm-35,41.78,10.76-33.79-10.76,3.55Z" style="fill:#6ebdff"/><path d="M872.1,524.31a1.69,1.69,0,0,0-1.69,1.69h0v67l-33.86,11.15a1.67,1.67,0,0,0-1.16,1.6V636a1.69,1.69,0,0,0,3.37,0h0V607l33.87-11.15a1.69,1.69,0,0,0,1.16-1.6V526a1.69,1.69,0,0,0-1.69-1.69Z" style="fill:#1f8ced"/><path d="M567,513H444.94l-60,116.61H707.75L647.74,513Z" style="fill:#a2dfff"/><path d="M650.23,511.71a2.81,2.81,0,0,0-2.5-1.52H444.94a2.82,2.82,0,0,0-2.5,1.52l-60,116.62a2.82,2.82,0,0,0,1.21,3.79,2.88,2.88,0,0,0,1.29.31H707.75a2.81,2.81,0,0,0,2.81-2.81,2.88,2.88,0,0,0-.31-1.29ZM567,629.61H384.93l60-116.61h202.8l60,116.61Z" style="fill:#143c86"/><path d="M712.09,617.85H380.59c-9.5,0-17.2,9.32-17.2,20.82H729.28c0-11.5-7.7-20.82-17.19-20.82Z" style="fill:#a2dfff"/><path d="M712.09,616.45H380.59c-10.26,0-18.6,10-18.6,22.22a1.41,1.41,0,0,0,1.4,1.41H729.28a1.41,1.41,0,0,0,1.41-1.41h0c0-12.25-8.34-22.22-18.6-22.22ZM364.84,637.27c.59-10.06,7.43-18,15.75-18h331.5c8.32,0,15.16,8,15.75,18Z" style="fill:#143c86"/><path d="M896.77,2.81H195.91a25.76,25.76,0,0,0-25.77,25.76h0V513a25.77,25.77,0,0,0,25.76,25.77H896.77A25.78,25.78,0,0,0,922.54,513h0V28.58A25.77,25.77,0,0,0,896.77,2.81Z" style="fill:#6ebdff"/><path d="M896.77,0H195.91a28.57,28.57,0,0,0-28.58,28.57h0V513a28.58,28.58,0,0,0,28.57,28.58H896.77A28.59,28.59,0,0,0,925.35,513h0V28.58A28.59,28.59,0,0,0,896.77,0Zm25.77,80.11V513a25.78,25.78,0,0,1-25.77,25.77H195.91A25.77,25.77,0,0,1,170.14,513h0V28.58A25.76,25.76,0,0,1,195.9,2.81H896.77a25.77,25.77,0,0,1,25.77,25.76h0Z" style="fill:#143c86"/><path d="M895.4,12.55H197.28A15.77,15.77,0,0,0,181.5,28.33h0V513.25A15.77,15.77,0,0,0,197.28,529H895.4a15.77,15.77,0,0,0,15.77-15.77h0V28.33A15.77,15.77,0,0,0,895.4,12.55Z" style="fill:#a2dfff"/><path d="M895.4,9.74H197.28a18.61,18.61,0,0,0-18.59,18.59V513.25a18.62,18.62,0,0,0,18.59,18.59H895.4A18.62,18.62,0,0,0,914,513.25V28.33A18.62,18.62,0,0,0,895.4,9.74Zm15.77,77V513.25A15.78,15.78,0,0,1,895.4,529H197.28a15.78,15.78,0,0,1-15.78-15.78V28.33a15.77,15.77,0,0,1,15.78-15.78H895.4a15.79,15.79,0,0,1,15.78,15.78h0Z" style="fill:#143c86"/><path d="M215,42.85H877.73V478.11H215Z" style="fill:#e0f4fc"/><path d="M877.73,41.45H215a1.41,1.41,0,0,0-1.41,1.4V478.11a1.41,1.41,0,0,0,1.41,1.4H877.73a1.4,1.4,0,0,0,1.4-1.4V42.85A1.4,1.4,0,0,0,877.73,41.45ZM876.32,476.7h-660V44.26h660Z" style="fill:#143c86"/><path d="M215,42.85H877.73v58.28H215Z" style="fill:#a2dfff"/><path d="M877.73,41.45H215a1.41,1.41,0,0,0-1.41,1.4v58.28a1.41,1.41,0,0,0,1.41,1.4H877.73a1.4,1.4,0,0,0,1.4-1.4h0V42.85A1.4,1.4,0,0,0,877.73,41.45Zm-1.41,58.27h-660V44.26h660Z" style="fill:#143c86"/><path d="M567.79,493.71H524.88a7.49,7.49,0,0,0,0,15h42.91a7.49,7.49,0,0,0,0-15Z" style="fill:#6ebdff"/><path d="M567.79,490.9H524.88a10.3,10.3,0,0,0,0,20.59h42.91a10.3,10.3,0,0,0,0-20.59Zm0,17.78H524.88a7.49,7.49,0,0,1,0-15h42.91a7.49,7.49,0,0,1,0,15Z" style="fill:#143c86"/><path d="M216,43.94H878.73V77.22H216Z" style="fill:#a2dfff"/><path d="M877.73,43.54H215a1.41,1.41,0,0,0-1.41,1.4h0V78.22a1.41,1.41,0,0,0,1.41,1.4H877.73a1.4,1.4,0,0,0,1.4-1.4V44.94A1.4,1.4,0,0,0,877.73,43.54Zm-1.41,33.27h-660V46.35h660Z" style="fill:#143c86"/><circle cx="231.74" cy="28.38" r="5.13" style="fill:#a2dfff"/><path d="M231.74,20.43a7.95,7.95,0,1,0,7.94,8h0A8,8,0,0,0,231.74,20.43Zm0,13.08a5.13,5.13,0,1,1,5.13-5.13,5.14,5.14,0,0,1-5.13,5.13Z" style="fill:#143c86"/><circle cx="257.7" cy="28.39" r="5.13" style="fill:#a2dfff"/><path d="M257.69,20.43a7.95,7.95,0,1,0,7.95,8h0A8,8,0,0,0,257.69,20.43Zm0,13.08a5.13,5.13,0,1,1,5.14-5.13,5.13,5.13,0,0,1-5.14,5.13Z" style="fill:#143c86"/><circle cx="205.78" cy="28.38" r="5.13" style="fill:#a2dfff"/><path d="M205.78,20.43a7.95,7.95,0,1,0,7.94,8h0A8,8,0,0,0,205.78,20.43Zm0,13.08a5.13,5.13,0,1,1,5.13-5.13,5.13,5.13,0,0,1-5.13,5.13Z" style="fill:#143c86"/><path d="M261.59,54.26a8.57,8.57,0,1,0,8.57,8.57A8.57,8.57,0,0,0,261.59,54.26Zm0,14.32a5.76,5.76,0,1,1,5.75-5.75h0a5.75,5.75,0,0,1-5.75,5.75Zm-29.1-14.32a8.57,8.57,0,1,0,8.56,8.57A8.57,8.57,0,0,0,232.49,54.26Zm0,14.32a5.76,5.76,0,1,1,5.75-5.75h0A5.76,5.76,0,0,1,232.49,68.58ZM847.83,57.07H288.48a5.76,5.76,0,0,0-.16,11.51H847.83a5.76,5.76,0,0,0,0-11.51Z" style="fill:#e0f4fc"/><path d="M303.21,321.39H299a1.41,1.41,0,1,0-.07,2.81h4.29a1.41,1.41,0,0,0,.07-2.81Zm-11.24,0h-4.22a1.41,1.41,0,0,0,0,2.81H292a1.41,1.41,0,0,0,0-2.81Zm22.48,0h-4.21a1.41,1.41,0,1,0-.08,2.81h4.29a1.41,1.41,0,1,0,.08-2.81Zm-14.19-41.12a1.4,1.4,0,0,0-1.4-1.4h-4.22a1.41,1.41,0,0,0,0,2.81h4.22a1.41,1.41,0,0,0,1.4-1.41ZM337,321.39h-4.22a1.41,1.41,0,0,0,0,2.81H337a1.41,1.41,0,0,0,0-2.81ZM334,280.27a1.41,1.41,0,0,0-1.41-1.4h-4.22a1.41,1.41,0,0,0,0,2.81h4.22a1.41,1.41,0,0,0,1.41-1.41Zm-8.3,41.12h-4.22a1.41,1.41,0,0,0,0,2.81h4.22a1.41,1.41,0,0,0,0-2.81Zm-2.95-41.12a1.4,1.4,0,0,0-1.4-1.4h-4.22a1.41,1.41,0,1,0,0,2.81h4.21a1.41,1.41,0,0,0,1.41-1.4Zm-64.4,14.3a1.41,1.41,0,0,0-1.41,1.41h0v4.22a1.41,1.41,0,0,0,2.81.07V296a1.41,1.41,0,0,0-1.4-1.41ZM289,280.27a1.4,1.4,0,0,0-1.4-1.4H283.4a1.41,1.41,0,1,0,0,2.81h4.21a1.41,1.41,0,0,0,1.41-1.41Zm-30.67,25.55a1.41,1.41,0,0,0-1.41,1.4h0v4.22a1.41,1.41,0,0,0,2.81.07v-4.29a1.4,1.4,0,0,0-1.4-1.4Zm0,11.24a1.41,1.41,0,0,0-1.41,1.41h0v4.21a1.41,1.41,0,1,0,2.81.08v-4.29A1.41,1.41,0,0,0,258.35,317.06Zm0-33.73a1.41,1.41,0,0,0-1.41,1.41h0V289a1.41,1.41,0,0,0,2.81.08v-4.29a1.41,1.41,0,0,0-1.4-1.41Zm86.89-3.06a1.4,1.4,0,0,0-1.4-1.4h-4.22a1.41,1.41,0,0,0,0,2.81h4.22A1.41,1.41,0,0,0,345.24,280.27Zm-64.52,41.12h-4.21a1.41,1.41,0,0,0,0,2.81h4.21a1.41,1.41,0,0,0,0-2.81Zm-2.94-41.12a1.41,1.41,0,0,0-1.41-1.4h-4.22a1.41,1.41,0,0,0,0,2.81h4.22a1.41,1.41,0,0,0,1.41-1.41Zm-8.3,41.12h-4.21a1.41,1.41,0,0,0,0,2.81h4.21a1.41,1.41,0,0,0,0-2.81Zm-3-41.12a1.4,1.4,0,0,0-1.4-1.4h-4.22a1.41,1.41,0,0,0,0,2.81h4.22A1.41,1.41,0,0,0,266.53,280.27Zm45,0a1.41,1.41,0,0,0-1.41-1.4h-4.21a1.41,1.41,0,1,0,0,2.81h4.21a1.41,1.41,0,0,0,1.41-1.41Zm112.44,0a1.41,1.41,0,0,0-1.41-1.4h-4.21a1.41,1.41,0,1,0,0,2.81h4.21a1.41,1.41,0,0,0,1.41-1.41Zm-8.3,41.12h-4.22a1.41,1.41,0,0,0,0,2.81h4.22a1.41,1.41,0,0,0,0-2.81Zm-2.95-41.12a1.4,1.4,0,0,0-1.4-1.4h-4.22a1.41,1.41,0,1,0,0,2.81h4.22a1.41,1.41,0,0,0,1.4-1.41Zm-8.29,41.12h-4.22a1.41,1.41,0,0,0,0,2.81h4.22a1.41,1.41,0,0,0,0-2.81ZM426.89,304a1.4,1.4,0,0,0-1.4,1.4h0v4.22a1.41,1.41,0,1,0,2.81,0v-4.22a1.41,1.41,0,0,0-1.41-1.4Zm0-22.49a1.41,1.41,0,0,0-1.4,1.41v4.21a1.41,1.41,0,1,0,2.81,0V283A1.41,1.41,0,0,0,426.89,281.54Zm0,33.73a1.41,1.41,0,0,0-1.41,1.41v4.22a1.43,1.43,0,0,0,.09.5h-2.9a1.41,1.41,0,0,0,0,2.81h4.22c.51-1.09,1-2.19,1.4-3.31v-4.22a1.41,1.41,0,0,0-1.4-1.41Zm0-22.48a1.4,1.4,0,0,0-1.4,1.4v4.22a1.41,1.41,0,0,0,2.81,0v-4.22a1.4,1.4,0,0,0-1.4-1.4Zm-25.43-12.52a1.4,1.4,0,0,0-1.4-1.4h-4.22a1.41,1.41,0,1,0,0,2.81h4.21a1.41,1.41,0,0,0,1.41-1.41Zm-53.27,41.12H344a1.41,1.41,0,0,0,0,2.81h4.22a1.41,1.41,0,0,0,0-2.81Zm19.54-41.12a1.41,1.41,0,0,0-1.41-1.4h-4.21a1.41,1.41,0,1,0,0,2.81h4.21a1.41,1.41,0,0,0,1.41-1.41Zm2.95,41.12h-4.22a1.41,1.41,0,0,0-.08,2.81h4.3a1.41,1.41,0,0,0,.07-2.81Zm-11.25,0h-4.21a1.41,1.41,0,1,0-.08,2.81h4.29a1.41,1.41,0,0,0,0-2.81Zm-2.95-41.12a1.4,1.4,0,0,0-1.4-1.4h-4.22a1.41,1.41,0,1,0,0,2.81h4.22a1.41,1.41,0,0,0,1.4-1.41Zm33.74,0a1.41,1.41,0,0,0-1.41-1.4H384.6a1.41,1.41,0,1,0,0,2.81h4.21a1.41,1.41,0,0,0,1.41-1.41Zm2.94,41.12H389a1.41,1.41,0,0,0,0,2.81h4.21a1.41,1.41,0,0,0,0-2.81ZM379,280.27a1.4,1.4,0,0,0-1.4-1.4h-4.22a1.41,1.41,0,1,0,0,2.81h4.22a1.41,1.41,0,0,0,1.4-1.41Zm2.95,41.12H377.7a1.41,1.41,0,0,0,0,2.81h4.22a1.41,1.41,0,0,0,.07-2.81Zm45,30.32H258.35a1.41,1.41,0,1,0-.08,2.81H426.9a1.41,1.41,0,0,0,0-2.81Zm0,17.38H258.35a1.41,1.41,0,1,0,0,2.81H426.9a1.41,1.41,0,0,0,0-2.81Zm0,17.38H258.35a1.41,1.41,0,1,0-.08,2.81H426.9a1.41,1.41,0,0,0,0-2.81Zm-59.67,17.38H258.35a1.41,1.41,0,1,0,0,2.81H367.23a1.41,1.41,0,1,0,0-2.81Z" style="fill:#a2dfff"/><path d="M510.8,175.08h-4.21a1.41,1.41,0,1,0-.08,2.81h4.29a1.41,1.41,0,1,0,.08-2.81Zm-11.24,0h-4.22a1.41,1.41,0,1,0-.07,2.81h4.29a1.41,1.41,0,0,0,.07-2.81Zm8.38,75.61h-4.21a1.41,1.41,0,1,0-.08,2.81h4.29a1.41,1.41,0,1,0,.08-2.81Zm-11.24,0h-4.21a1.41,1.41,0,1,0-.08,2.81h4.29a1.41,1.41,0,0,0,0-2.81Zm22.49,0H515a1.41,1.41,0,0,0,0,2.81h4.22a1.41,1.41,0,0,0,.07-2.81Zm2.86-75.61h-4.22a1.41,1.41,0,0,0,0,2.81h4.22a1.41,1.41,0,0,0,.07-2.81Zm19.62,75.61h-4.21a1.41,1.41,0,1,0-.08,2.81h4.29a1.41,1.41,0,0,0,0-2.81Zm11.25,0H548.7a1.41,1.41,0,1,0-.07,2.81h4.29a1.41,1.41,0,0,0,.07-2.81Zm-22.49,0h-4.21a1.41,1.41,0,1,0-.08,2.81h4.29a1.41,1.41,0,0,0,.08-2.81Zm14.11-75.61h-4.22a1.41,1.41,0,1,0-.08,2.81h4.29a1.41,1.41,0,0,0,0-2.81Zm-56.22,0H484.1a1.41,1.41,0,0,0,0,2.81h4.22a1.41,1.41,0,0,0,.07-2.81ZM472,222a1.4,1.4,0,0,0,1.41-1.4h0v-4.22a1.41,1.41,0,0,0-2.81-.07v4.29A1.4,1.4,0,0,0,472,222Zm0-11.24a1.41,1.41,0,0,0,1.41-1.4h0v-4.22a1.41,1.41,0,0,0-2.81-.08v4.3a1.4,1.4,0,0,0,1.4,1.4Zm0-11.24a1.41,1.41,0,0,0,1.41-1.41h0v-4.21a1.41,1.41,0,1,0-2.81-.08v4.29a1.41,1.41,0,0,0,1.4,1.41Zm0-11.25a1.41,1.41,0,0,0,1.41-1.4v-4.22a1.41,1.41,0,0,0-2.81-.07v4.29A1.4,1.4,0,0,0,472,188.26Zm0,45a1.41,1.41,0,0,0,1.41-1.41h0v-4.21a1.41,1.41,0,0,0-2.81,0v4.21a1.41,1.41,0,0,0,1.4,1.41Zm5.09-58.16h-4.22a1.41,1.41,0,0,0,0,2.81h4.22a1.41,1.41,0,0,0,0-2.81Zm8.38,75.61h-4.21a1.41,1.41,0,1,0-.08,2.81h4.29a1.41,1.41,0,1,0,.08-2.81ZM472,244.48a1.41,1.41,0,0,0,1.41-1.4h0v-4.22a1.41,1.41,0,0,0-2.81,0v4.22a1.4,1.4,0,0,0,1.39,1.4Zm2.23,6.21h-.82v-.58a1.41,1.41,0,0,0-2.81,0v2a1.4,1.4,0,0,0,1.4,1.4h2.23a1.41,1.41,0,0,0,.07-2.81Zm59.08-75.61h-4.22a1.41,1.41,0,0,0,0,2.81h4.22a1.41,1.41,0,0,0,0-2.81Zm98.34,66.11a1.41,1.41,0,0,0-1.41,1.4h0v4.22a1.41,1.41,0,0,0,2.81,0h0v-4.22a1.4,1.4,0,0,0-1.4-1.4Zm0-11.25a1.41,1.41,0,0,0-1.41,1.41h0v4.22a1.4,1.4,0,0,0,1.41,1.39,1.39,1.39,0,0,0,1.4-1.39v-4.22a1.4,1.4,0,0,0-1.4-1.41Zm0-11.24a1.41,1.41,0,0,0-1.41,1.4h0v4.22a1.41,1.41,0,0,0,2.81,0h0V220.1a1.4,1.4,0,0,0-1.4-1.4Zm-75.85-43.62h-4.22a1.41,1.41,0,0,0,0,2.81h4.22a1.41,1.41,0,0,0,0-2.81Zm64.6,75.61h-4.21a1.41,1.41,0,0,0,0,2.81h4.21a1.41,1.41,0,1,0,.08-2.81Zm11.25,0h-4.22a1.41,1.41,0,1,0-.07,2.81h4.29a1.41,1.41,0,0,0,.07-2.81Zm0-65.73a1.41,1.41,0,0,0-1.41,1.41h0v4.22a1.41,1.41,0,0,0,2.81,0h0v-4.22a1.41,1.41,0,0,0-1.4-1.41Zm0,22.49a1.41,1.41,0,0,0-1.41,1.41h0v4.22a1.41,1.41,0,0,0,2.81,0h0v-4.22a1.4,1.4,0,0,0-1.4-1.41Zm0-32.37h-1.36a1.41,1.41,0,0,0,0,2.81v1.45a1.41,1.41,0,0,0,1.4,1.41,1.39,1.39,0,0,0,1.41-1.39v-2.88a1.4,1.4,0,0,0-1.4-1.4Zm0,21.13a1.41,1.41,0,0,0-1.41,1.4h0v4.21a1.41,1.41,0,0,0,2.81,0h0v-4.21a1.4,1.4,0,0,0-1.4-1.41Zm-8.39-21.13H619a1.41,1.41,0,0,0,0,2.81h4.21a1.41,1.41,0,1,0,.08-2.81Zm-11.24,0h-4.22a1.41,1.41,0,0,0-.08,2.81H612a1.41,1.41,0,0,0,0-2.81Zm-33.73,0h-4.22a1.41,1.41,0,1,0-.07,2.81h4.29a1.41,1.41,0,0,0,0-2.81Zm-11.25,0h-4.21a1.41,1.41,0,0,0,0,2.81H567a1.41,1.41,0,1,0,.08-2.81Zm-2.86,75.61H560a1.41,1.41,0,0,0,0,2.81h4.21a1.41,1.41,0,1,0,.08-2.81Zm22.49,0h-4.22a1.41,1.41,0,0,0,0,2.81h4.22a1.41,1.41,0,0,0,.08-2.81Zm-11.24,0h-4.22a1.41,1.41,0,1,0-.07,2.81h4.29a1.41,1.41,0,0,0,0-2.81Zm14.1-75.61h-4.22a1.41,1.41,0,0,0,0,2.81h4.22a1.41,1.41,0,0,0,.07-2.81Zm11.25,0h-4.22a1.41,1.41,0,0,0-.08,2.81h4.3a1.41,1.41,0,0,0,.07-2.81Zm8.38,75.61h-4.22a1.41,1.41,0,0,0,0,2.81h4.22a1.41,1.41,0,0,0,.07-2.81Zm-11.24,0h-4.22a1.41,1.41,0,0,0-.08,2.81h4.3a1.41,1.41,0,0,0,.07-2.81Zm-73.19,29.58a1.41,1.41,0,0,0-1.41-1.4h-4.21a1.41,1.41,0,1,0,0,2.81h4.21a1.41,1.41,0,0,0,1.41-1.41Zm3.82,41.12h-4.22a1.41,1.41,0,0,0,0,2.81h4.22a1.41,1.41,0,0,0,0-2.81Zm-15.07-41.12a1.4,1.4,0,0,0-1.4-1.4h-4.22a1.41,1.41,0,0,0,0,2.81h4.22a1.4,1.4,0,0,0,1.4-1.41ZM506,321.39h-4.22a1.41,1.41,0,0,0,0,2.81H506a1.41,1.41,0,0,0,0-2.81Zm11.24,0h-4.21a1.41,1.41,0,0,0-.08,2.81h4.29a1.41,1.41,0,1,0,.08-2.81ZM536,280.27a1.4,1.4,0,0,0-1.4-1.4h-4.22a1.41,1.41,0,1,0,0,2.81h4.22a1.41,1.41,0,0,0,1.4-1.41Zm11.25,0a1.41,1.41,0,0,0-1.41-1.4h-4.21a1.41,1.41,0,1,0,0,2.81h4.21a1.41,1.41,0,0,0,1.41-1.41Zm-7.43,41.12h-4.21a1.41,1.41,0,0,0,0,2.81h4.21a1.41,1.41,0,1,0,.08-2.81Zm-66.38-2.49a1.41,1.41,0,0,0-2.81,0v3.9a1.4,1.4,0,0,0,1.4,1.4h.33a1.41,1.41,0,0,0,1.4-1.41,1.45,1.45,0,0,0-.32-.89Zm6.34-38.63a1.4,1.4,0,0,0-1.4-1.4h-4.22a1.41,1.41,0,0,0,0,2.81h4.22a1.41,1.41,0,0,0,1.4-1.41Zm-7.75,33a1.41,1.41,0,0,0,1.41-1.4h0v-4.22a1.41,1.41,0,0,0-2.81-.08v4.3a1.4,1.4,0,0,0,1.4,1.4ZM472,302a1.41,1.41,0,0,0,1.41-1.41h0v-4.22a1.41,1.41,0,1,0-2.81-.07v4.29A1.41,1.41,0,0,0,472,302Zm0-11.25a1.41,1.41,0,0,0,1.41-1.4v-4.22a1.41,1.41,0,1,0-2.81-.07v4.29A1.4,1.4,0,0,0,472,290.79Zm22.82,30.6h-4.22a1.41,1.41,0,0,0,0,2.81h4.22a1.41,1.41,0,0,0,0-2.81Zm7.42-41.12a1.4,1.4,0,0,0-1.39-1.4H496.6a1.41,1.41,0,1,0,0,2.81h4.22a1.4,1.4,0,0,0,1.4-1.4Zm-18.67,41.12h-4.21a1.41,1.41,0,0,0,0,2.81h4.21a1.41,1.41,0,0,0,0-2.81ZM491,280.27a1.41,1.41,0,0,0-1.41-1.4h-4.21a1.41,1.41,0,1,0,0,2.81h4.21a1.41,1.41,0,0,0,1.41-1.41Zm60,41.12H546.8a1.41,1.41,0,0,0,0,2.81H551a1.41,1.41,0,0,0,0-2.81Zm78.71-7a1.41,1.41,0,0,0-1.41,1.41h0V320a1.4,1.4,0,0,0,1.08,1.36h-3.9a1.41,1.41,0,0,0,0,2.82h4.22a3.76,3.76,0,0,1,1.41-4.18V315.8a1.42,1.42,0,0,0-1.4-1.4Zm-3.82-34.13a1.41,1.41,0,0,0-1.41-1.4h-4.22a1.41,1.41,0,0,0,0,2.81h4.22a1.41,1.41,0,0,0,1.41-1.41Zm-7.43,41.12h-4.21a1.41,1.41,0,1,0-.08,2.81h4.29a1.41,1.41,0,0,0,.08-2.81Zm-3.82-41.12a1.4,1.4,0,0,0-1.4-1.4H609a1.41,1.41,0,1,0,0,2.81h4.22a1.41,1.41,0,0,0,1.4-1.41Zm15.07,22.89a1.4,1.4,0,0,0-1.41,1.4h0v4.22a1.41,1.41,0,0,0,2.81,0v-4.22a1.4,1.4,0,0,0-1.4-1.4Zm0-22.49a1.41,1.41,0,0,0-1.41,1.4h0v4.22a1.41,1.41,0,0,0,2.81,0h0v-4.22a1.4,1.4,0,0,0-1.4-1.4Zm-22.49,40.72H603a1.41,1.41,0,0,0,0,2.81h4.22a1.41,1.41,0,0,0,0-2.81Zm22.49-29.48a1.41,1.41,0,0,0-1.41,1.41h0v4.21a1.41,1.41,0,1,0,2.81,0v-4.23a1.41,1.41,0,0,0-1.4-1.41Zm-48.8-11.64a1.4,1.4,0,0,0-1.41-1.4h-4.21a1.41,1.41,0,1,0,0,2.81h4.21a1.41,1.41,0,0,0,1.41-1.41Zm-22.49,0a1.4,1.4,0,0,0-1.4-1.4h-4.22a1.41,1.41,0,1,0,0,2.81H557a1.41,1.41,0,0,0,1.4-1.41Zm45,0a1.4,1.4,0,0,0-1.4-1.4H597.8a1.41,1.41,0,1,0,0,2.81H602a1.41,1.41,0,0,0,1.4-1.41ZM573.5,321.39h-4.21a1.41,1.41,0,0,0,0,2.81h4.21a1.41,1.41,0,0,0,.08-2.81Zm-11.24,0H558a1.41,1.41,0,0,0,0,2.81h4.22a1.41,1.41,0,0,0,0-2.81Zm7.42-41.12a1.4,1.4,0,0,0-1.4-1.4h-4.22a1.41,1.41,0,0,0,0,2.81h4.22a1.4,1.4,0,0,0,1.4-1.41ZM596,321.39h-4.21a1.41,1.41,0,0,0,0,2.81H596a1.41,1.41,0,0,0,0-2.81Zm-11.24,0h-4.22a1.41,1.41,0,1,0-.07,2.81h4.29a1.41,1.41,0,0,0,.07-2.81Zm7.42-41.12a1.4,1.4,0,0,0-1.4-1.4h-4.22a1.41,1.41,0,0,0,0,2.81h4.22a1.41,1.41,0,0,0,1.4-1.41Zm37.56,71.44H472a1.41,1.41,0,0,0,0,2.81H629.72a1.41,1.41,0,0,0,0-2.81Zm0,17.38H472a1.41,1.41,0,0,0,0,2.81H629.72a1.41,1.41,0,1,0,0-2.81Zm0,17.38H472a1.41,1.41,0,0,0,0,2.81H629.72a1.41,1.41,0,0,0,0-2.81Zm-55.84,17.38H472a1.41,1.41,0,1,0,0,2.81h101.9a1.41,1.41,0,0,0,0-2.81Z" style="fill:#a2dfff"/><path d="M691.63,175.08h-4.22a1.41,1.41,0,1,0-.07,2.81h4.29a1.41,1.41,0,0,0,0-2.81Zm22.49,0H709.9a1.41,1.41,0,0,0-.08,2.81h4.3a1.41,1.41,0,0,0,.07-2.81Zm-11.25,0h-4.21a1.41,1.41,0,1,0-.08,2.81h4.29a1.41,1.41,0,0,0,.08-2.81Zm45,0h-4.22a1.41,1.41,0,0,0-.08,2.81h4.3a1.41,1.41,0,0,0,.07-2.81ZM699.4,250.69h-4.22a1.41,1.41,0,1,0-.07,2.81h4.29a1.41,1.41,0,0,0,.07-2.81Zm11.24,0h-4.21a1.41,1.41,0,0,0,0,2.81h4.21a1.41,1.41,0,1,0,.08-2.81Zm33.74,0h-4.22a1.41,1.41,0,0,0,0,2.81h4.22a1.41,1.41,0,0,0,.07-2.81Zm-7.78-75.61h-4.21a1.41,1.41,0,0,0,0,2.81h4.21a1.41,1.41,0,1,0,.08-2.81Zm-11.24,0h-4.22a1.41,1.41,0,0,0,0,2.81h4.22a1.41,1.41,0,0,0,0-2.81Zm7.77,75.61h-4.21a1.41,1.41,0,1,0-.08,2.81h4.29a1.41,1.41,0,0,0,.08-2.81Zm-69.38-17.76a1.4,1.4,0,0,0,1.4-1.4h0v-4.22a1.41,1.41,0,0,0-2.81,0v4.22a1.41,1.41,0,0,0,1.41,1.4Zm0-45a1.41,1.41,0,0,0,1.4-1.41v-4.22a1.41,1.41,0,0,0-2.81,0v4.22a1.42,1.42,0,0,0,1.4,1.41Zm0,33.73a1.4,1.4,0,0,0,1.4-1.4v-4.22a1.41,1.41,0,0,0-2.81,0v4.22a1.4,1.4,0,0,0,1.4,1.4Zm0-11.24a1.41,1.41,0,0,0,1.4-1.41v-4.22a1.41,1.41,0,0,0-2.81,0V209a1.41,1.41,0,0,0,1.41,1.41Zm0,33.73a1.41,1.41,0,0,0,1.4-1.41h0v-4.22a1.41,1.41,0,0,0-2.81,0v4.22a1.41,1.41,0,0,0,1.41,1.41Zm24.41,6.51h-4.22a1.41,1.41,0,1,0-.07,2.81h4.29a1.41,1.41,0,0,0,.07-2.81ZM663.75,199.2a1.4,1.4,0,0,0,1.4-1.4h0v-4.21a1.41,1.41,0,0,0-2.81-.08v4.29a1.41,1.41,0,0,0,1.41,1.41Zm13.16,51.49H672.7a1.41,1.41,0,0,0,0,2.81h4.21a1.41,1.41,0,0,0,.08-2.81Zm3.47-75.61h-4.21a1.41,1.41,0,1,0-.08,2.81h4.29a1.41,1.41,0,1,0,.08-2.81Zm-11.24,0h-4.22a1.41,1.41,0,1,0-.07,2.81h4.29a1.41,1.41,0,0,0,0-2.81Zm-3.47,75.61h-.52v-.89a1.41,1.41,0,0,0-2.81-.08v2.38a1.42,1.42,0,0,0,1.4,1.41h1.93a1.41,1.41,0,0,0,.07-2.82Zm56.22,0h-4.22a1.41,1.41,0,1,0-.07,2.81h4.29a1.41,1.41,0,0,0,.07-2.81Zm112.44,0h-4.22a1.41,1.41,0,1,0-.07,2.81h4.29a1.41,1.41,0,0,0,0-2.81Zm0-8.9a1.41,1.41,0,0,0-1.41,1.41h0v4.22a1.41,1.41,0,0,0,2.81,0V243.2a1.41,1.41,0,0,0-1.4-1.41Zm-7.77-66.71h-4.22a1.41,1.41,0,0,0-.08,2.81h4.3a1.41,1.41,0,0,0,0-2.81Zm7.77,55.47a1.41,1.41,0,0,0-1.41,1.41h0v4.22a1.41,1.41,0,0,0,2.81.07V232a1.4,1.4,0,0,0-1.4-1.41Zm-11.25,20.14h-4.21a1.41,1.41,0,1,0-.08,2.81h4.29a1.41,1.41,0,0,0,0-2.81Zm11.25-53.87a1.41,1.41,0,0,0-1.41,1.41v4.21a1.41,1.41,0,0,0,2.81,0v-4.21a1.41,1.41,0,0,0-1.4-1.41Zm0-21.74h-.75a1.4,1.4,0,0,0-.66,2.64V180a1.41,1.41,0,0,0,2.81.07v-3.55a1.4,1.4,0,0,0-1.4-1.4Zm0,10.5a1.41,1.41,0,0,0-1.41,1.4h0v4.22a1.41,1.41,0,0,0,2.81,0V187a1.39,1.39,0,0,0-1.39-1.4Zm0,33.73a1.41,1.41,0,0,0-1.41,1.4v4.22a1.41,1.41,0,1,0,2.81.08v-4.3a1.4,1.4,0,0,0-1.4-1.4Zm0-11.24a1.4,1.4,0,0,0-1.41,1.4h0v4.22a1.41,1.41,0,0,0,2.81,0v-4.22a1.4,1.4,0,0,0-1.4-1.4Zm-19-33H811.1a1.41,1.41,0,0,0,0,2.81h4.21a1.41,1.41,0,0,0,.08-2.81Zm-37.2,75.61h-4.22a1.41,1.41,0,0,0-.07,2.81h4.29a1.41,1.41,0,1,0,.07-2.81Zm-22.49,0H751.4a1.41,1.41,0,0,0-.07,2.81h4.29a1.41,1.41,0,0,0,0-2.81Zm14.72-75.61h-4.22a1.41,1.41,0,0,0-.07,2.81h4.29a1.41,1.41,0,0,0,.07-2.81Zm11.24,0h-4.22a1.41,1.41,0,0,0-.07,2.81h4.29a1.41,1.41,0,0,0,.07-2.81Zm-14.72,75.61h-4.21a1.41,1.41,0,0,0,0,2.81h4.21a1.41,1.41,0,1,0,.08-2.81Zm-7.77-75.61h-4.21a1.41,1.41,0,0,0,0,2.81h4.21a1.41,1.41,0,0,0,.08-2.81Zm33.73,0h-4.21a1.41,1.41,0,0,0,0,2.81h4.21a1.41,1.41,0,0,0,0-2.81Zm11.25,0h-4.22a1.41,1.41,0,0,0,0,2.81h4.22a1.41,1.41,0,0,0,.07-2.81Zm-3.47,75.61h-4.22a1.41,1.41,0,0,0,0,2.81h4.22a1.41,1.41,0,1,0,.07-2.81Zm-11.25,0h-4.22a1.41,1.41,0,0,0,0,2.81h4.22a1.41,1.41,0,0,0,0-2.81Zm22.49,0h-4.22a1.41,1.41,0,1,0-.07,2.81h4.29a1.41,1.41,0,1,0,.07-2.81Zm-103.23,70.7h-4.22a1.41,1.41,0,0,0,0,2.81h4.22a1.41,1.41,0,0,0,0-2.81Zm8.3-41.12a1.41,1.41,0,0,0-1.41-1.4h-4.22a1.41,1.41,0,0,0,0,2.81h4.22a1.41,1.41,0,0,0,1.41-1.41Zm-19.54,41.12h-4.22a1.41,1.41,0,1,0-.07,2.81h4.29a1.41,1.41,0,0,0,0-2.81Zm8.29-41.12a1.4,1.4,0,0,0-1.4-1.4H700a1.41,1.41,0,1,0,0,2.81h4.22a1.41,1.41,0,0,0,1.4-1.41Zm25.44,41.12h-4.22a1.41,1.41,0,0,0-.08,2.81h4.3a1.41,1.41,0,0,0,.07-2.81Zm8.29-41.12a1.4,1.4,0,0,0-1.4-1.4h-4.22a1.41,1.41,0,0,0,0,2.81H738a1.4,1.4,0,0,0,1.4-1.41Zm-45,0a1.41,1.41,0,0,0-1.41-1.4H688.8a1.41,1.41,0,1,0,0,2.81H693a1.41,1.41,0,0,0,1.41-1.41Zm25.43,41.12h-4.21a1.41,1.41,0,0,0,0,2.81h4.21a1.41,1.41,0,1,0,.08-2.81Zm8.3-41.12a1.4,1.4,0,0,0-1.4-1.4h-4.22a1.41,1.41,0,1,0,0,2.81h4.22a1.41,1.41,0,0,0,1.4-1.41Zm-64.4,3.06a1.41,1.41,0,0,0-1.41,1.41h0V289a1.41,1.41,0,1,0,2.81.08v-4.29a1.41,1.41,0,0,0-1.4-1.41Zm0,11.24a1.41,1.41,0,0,0-1.41,1.41h0v4.22a1.41,1.41,0,0,0,2.81.07V296a1.42,1.42,0,0,0-1.4-1.41Zm0,11.25a1.41,1.41,0,0,0-1.41,1.4h0v4.22a1.41,1.41,0,0,0,2.81.07v-4.29a1.4,1.4,0,0,0-1.4-1.4Zm22.37,15.57h-4.21a1.41,1.41,0,0,0,0,2.81h4.21a1.41,1.41,0,0,0,0-2.81Zm-22.37-4.33a1.41,1.41,0,0,0-1.41,1.4h0v4.21a1.41,1.41,0,0,0,2.81,0v-4.21a1.41,1.41,0,0,0-1.4-1.41Zm78.59,4.33h-4.21a1.41,1.41,0,0,0,0,2.81h4.21a1.41,1.41,0,0,0,0-2.81Zm-59.16-41.12a1.41,1.41,0,0,0-1.41-1.4h-4.22a1.41,1.41,0,0,0,0,2.81h4.22a1.41,1.41,0,0,0,1.41-1.41Zm-11.25,0a1.4,1.4,0,0,0-1.4-1.4h-4.22a1.41,1.41,0,1,0,0,2.81h4.22a1.41,1.41,0,0,0,1.4-1.41Zm3,41.12h-4.22a1.41,1.41,0,0,0,0,2.81h4.22a1.41,1.41,0,0,0,.07-2.81ZM818.1,280.27a1.4,1.4,0,0,0-1.4-1.4h-4.22a1.41,1.41,0,0,0,0,2.81h4.22a1.4,1.4,0,0,0,1.4-1.41Zm2.95,41.12h-4.21a1.41,1.41,0,1,0-.08,2.81h4.29a1.41,1.41,0,0,0,0-2.81Zm8.3-41.12a1.41,1.41,0,0,0-1.41-1.4h-4.21a1.41,1.41,0,1,0,0,2.81H828a1.41,1.41,0,0,0,1.4-1.41Zm-19.54,41.12h-4.22a1.41,1.41,0,0,0,0,2.81h4.22a1.41,1.41,0,0,0,.07-2.81Zm-2.95-41.12a1.4,1.4,0,0,0-1.41-1.4h-4.21a1.41,1.41,0,1,0,0,2.81h4.21a1.41,1.41,0,0,0,1.41-1.41Zm-8.3,41.12h-4.22a1.41,1.41,0,1,0-.07,2.81h4.29a1.41,1.41,0,0,0,0-2.81Zm33.74-28.6a1.39,1.39,0,0,0-1.41,1.4h0v4.22a1.41,1.41,0,0,0,2.81,0v-4.22a1.4,1.4,0,0,0-1.4-1.4Zm0-11.25a1.41,1.41,0,0,0-1.41,1.41v4.21a1.41,1.41,0,0,0,2.81,0V283a1.41,1.41,0,0,0-1.4-1.41Zm0,33.73a1.41,1.41,0,0,0-1.41,1.41v4.21a1.43,1.43,0,0,0,.09.5h-2.9a1.41,1.41,0,0,0,0,2.82h4.22c.51-1.09,1-2.19,1.4-3.31v-4.22a1.41,1.41,0,0,0-1.4-1.41Zm0-11.24a1.41,1.41,0,0,0-1.41,1.4h0v4.22a1.41,1.41,0,0,0,2.81,0v-4.22a1.4,1.4,0,0,0-1.4-1.4Zm-36.68-23.76a1.41,1.41,0,0,0-1.41-1.4H790a1.41,1.41,0,0,0,0,2.81h4.22a1.41,1.41,0,0,0,1.41-1.41Zm-45,0a1.41,1.41,0,0,0-1.41-1.4H745a1.41,1.41,0,1,0,0,2.81h4.21a1.41,1.41,0,0,0,1.41-1.41Zm11.24,0a1.4,1.4,0,0,0-1.4-1.4h-4.22a1.41,1.41,0,0,0,0,2.81h4.22a1.41,1.41,0,0,0,1.4-1.41Zm3,41.12h-4.22a1.41,1.41,0,1,0-.07,2.81h4.29a1.41,1.41,0,0,0,0-2.81Zm-11.24,0h-4.22a1.41,1.41,0,1,0-.07,2.81h4.29a1.41,1.41,0,0,0,.07-2.81Zm19.54-41.12a1.41,1.41,0,0,0-1.41-1.4h-4.21a1.41,1.41,0,1,0,0,2.81h4.21a1.41,1.41,0,0,0,1.41-1.41Zm14.19,41.12H783.1a1.41,1.41,0,0,0,0,2.81h4.22a1.41,1.41,0,0,0,.07-2.81Zm-3-41.12a1.4,1.4,0,0,0-1.4-1.4h-4.22a1.41,1.41,0,1,0,0,2.81H783a1.41,1.41,0,0,0,1.4-1.41Zm-8.3,41.12h-4.21a1.41,1.41,0,0,0,0,2.81h4.21a1.41,1.41,0,1,0,.08-2.81Zm56.23,30.32H663.75a1.41,1.41,0,0,0,0,2.81H832.3a1.41,1.41,0,0,0,0-2.81Zm0,17.38H663.75a1.41,1.41,0,1,0,0,2.81H832.3a1.41,1.41,0,0,0,0-2.81Zm0,17.38H663.75a1.41,1.41,0,0,0,0,2.81H832.3a1.41,1.41,0,0,0,0-2.81Zm-59.67,17.38H663.75a1.41,1.41,0,1,0,0,2.81H772.63a1.41,1.41,0,1,0,0-2.81Z" style="fill:#a2dfff"/><path d="M295.78,637.27H3.31a1.41,1.41,0,0,0,0,2.81H295.78a1.41,1.41,0,0,0,0-2.81Z" style="fill:#143c86"/><path d="M264.67,358.64a4.77,4.77,0,0,0-4.21-4.17l-9-1v5s-6.19,5.33-6.13,12.76c.06,8.2-.1,17.44-.46,25.18a339.36,339.36,0,0,1-26-32c-3.76-5.38-8.2-6.73-13.24-6.77a9.85,9.85,0,0,0-6.43,2.1,13.45,13.45,0,0,0-3.56,18.69c.35.53,8.88,13,19,25.3,13.16,15.89,25.2,32.85,41.44,28.31,13.45-3.77,13.68-14.49,12.2-34.8C267.52,386.05,265.57,366.06,264.67,358.64Z" style="fill:#fff"/><path d="M266.07,358.48a6.16,6.16,0,0,0-5.45-5.4l-9-1a1.42,1.42,0,0,0-1.56,1.24c0,.06,0,.11,0,.16v4.41c-1.55,1.51-6.19,6.58-6.13,13.38.06,7.06-.06,14.78-.32,21.7a340.61,340.61,0,0,1-23.55-29.35c-4.52-6.46-10.06-7.33-14.38-7.37a11.24,11.24,0,0,0-7.23,2.34,14.88,14.88,0,0,0-3.94,20.64c.36.53,9,13.15,19.11,25.41q1.63,2,3.26,4c6.11,7.47,11.89,14.54,18.2,19.41,5.35,4.13,10.55,6.17,15.77,6.17a20.47,20.47,0,0,0,5.66-.8c14.8-4.14,14.67-16.48,13.22-36.26-.84-11.46-2.82-31.58-3.67-38.65Zm.42,62c-1.5,5.47-4.7,8.53-10.73,10.21-14,3.92-25-9.57-36.69-23.86-1.09-1.32-2.18-2.66-3.27-4-10.07-12.16-18.59-24.67-19-25.2a12.05,12.05,0,0,1,3.2-16.73,8.42,8.42,0,0,1,5.62-1.86c5.56.05,9.07,1.84,12.1,6.17a344,344,0,0,0,26.08,32.17,1.41,1.41,0,0,0,2.44-.89c.36-7.76.53-17,.46-25.26-.05-6.67,5.59-11.63,5.65-11.68a1.38,1.38,0,0,0,.49-1.06V355l7.41.83a3.37,3.37,0,0,1,3,2.95c.85,7,2.82,27.08,3.66,38.52.68,9.27,1.11,17.41-.45,23.13Z" style="fill:#143c86"/><path d="M252.6,354.36c-2.62-2.23-8.22-3.79-11-4.47a3,3,0,0,0-3.38,4.12l4.91,10.75,14-4.39a15.36,15.36,0,0,0-4.53-6Z" style="fill:#fff"/><path d="M253.51,353.29c-2.81-2.4-8.49-4-11.62-4.77a4.38,4.38,0,0,0-5,6.07l4.92,10.76a1.4,1.4,0,0,0,1.7.75l14-4.39a1.4,1.4,0,0,0,.92-1.76v0A16.69,16.69,0,0,0,253.51,353.29Zm-9.65,9.76-4.4-9.63a1.55,1.55,0,0,1,.77-2.06,1.59,1.59,0,0,1,.65-.15,2.23,2.23,0,0,1,.36.05c4.91,1.18,8.72,2.7,10.45,4.17a15.57,15.57,0,0,1,3.46,4.08Z" style="fill:#143c86"/><circle cx="164.49" cy="317.45" r="52.47" style="fill:#a2dfff"/><path d="M164.49,263.58a53.88,53.88,0,1,0,38.09,15.78A53.87,53.87,0,0,0,164.49,263.58Zm0,104.93a51.06,51.06,0,1,1,51.06-51.06A51.06,51.06,0,0,1,164.49,368.51Z" style="fill:#143c86"/><path d="M122.26,317.45a1.41,1.41,0,1,0-2.82,0,44.75,44.75,0,0,0,13.2,31.85,1.41,1.41,0,0,0,2,0,1.42,1.42,0,0,0,0-2h0A41.88,41.88,0,0,1,122.26,317.45Zm42.23-45a1.41,1.41,0,1,0-.08,2.81h.08a42.28,42.28,0,0,1,42.23,42.23,1.41,1.41,0,0,0,2.81,0A45.09,45.09,0,0,0,164.49,272.41Zm-8,43.5-6.73,17v34.75l23.17-.89-4.45-33.86Z" style="fill:#fff"/><path d="M169.83,332.71a1.4,1.4,0,0,0-.25-.63l-12-17a1.41,1.41,0,0,0-2-.34,1.44,1.44,0,0,0-.49.63l-6.73,17a1.34,1.34,0,0,0-.1.52v34.75a1.4,1.4,0,0,0,1.4,1.41h.05l23.17-.89a1.41,1.41,0,0,0,1.35-1.46.53.53,0,0,0,0-.13Zm-18.7,33.47v-33l5.67-14.32,10.29,14.58,4.21,32Z" style="fill:#143c86"/><path d="M184.74,312.44a12.39,12.39,0,0,0-13.07-11.12l-19.31,1.17,10,41.05L176.84,346a8.88,8.88,0,0,0,10.21-7.3,8.73,8.73,0,0,0,.08-2.34Z" style="fill:#fff"/><path d="M186.14,312.3a13.75,13.75,0,0,0-14.55-12.38l-19.32,1.17a1.4,1.4,0,0,0,.16,2.8h0l19.32-1.17a11,11,0,0,1,11.58,9.86l2.39,23.88a7.49,7.49,0,0,1-6.69,8.18,7.73,7.73,0,0,1-2-.07l-14.47-2.41a1.4,1.4,0,0,0-.47,2.77l14.48,2.42a11.08,11.08,0,0,0,1.72.14,10.29,10.29,0,0,0,10.25-10.33c0-.33,0-.65,0-1Z" style="fill:#143c86"/><path d="M185.85,295.86a25.21,25.21,0,0,1-5.24-1.54c-11.38-4.93-31.9-10.46-41.6,5.2-12.7,20.52,10.72,41.76,10.72,41.76.15-.09.33-.2.52-.34l4.94-3.19a6,6,0,0,0,2.61-3.8l2.92-14.05a15.35,15.35,0,0,1,5.53-9c3.64-2.85,8-4.83,11.68-5.11a17.34,17.34,0,0,0,9.54-3.37,3.73,3.73,0,0,0-1.62-6.6Z" style="fill:#0084ff"/><path d="M186.11,294.48a23.72,23.72,0,0,1-4.94-1.45c-9.44-4.08-32.54-11.71-43.35,5.75-5.47,8.84-5.28,19.21.55,30a56.11,56.11,0,0,0,10.41,13.56,1.42,1.42,0,0,0,1.65.18c.18-.1.38-.24.61-.39l4.91-3.18a7.43,7.43,0,0,0,3.23-4.7l2.91-14.06a14,14,0,0,1,5-8.13c3.53-2.77,7.61-4.57,10.92-4.81a18.84,18.84,0,0,0,10.28-3.67,5,5,0,0,0,1.85-5.2,5.12,5.12,0,0,0-4.06-3.88Zm.5,6.86a16.08,16.08,0,0,1-8.78,3.08c-3.9.29-8.43,2.26-12.44,5.4a16.77,16.77,0,0,0-6,9.78l-2.92,14.06a4.55,4.55,0,0,1-2,2.9l-4.53,2.93a55,55,0,0,1-9.05-12.07c-5.4-10-5.62-19.11-.64-27.16,4-6.41,10.29-9.66,18.79-9.66h.17c7.8,0,15.67,2.75,20.88,5a26.79,26.79,0,0,0,5.53,1.63,2.3,2.3,0,0,1,1.86,1.77,2.23,2.23,0,0,1-.83,2.33Z" style="fill:#143c86"/><path d="M154.16,325.23c.79,4.1,3.35,5.83,6.3,5.83l1.83-10.32a6.5,6.5,0,0,0-3.88-1.5c-2.95,0-4.81,3.08-4.25,6Z" style="fill:#fff"/><path d="M163.16,319.63a7.86,7.86,0,0,0-4.74-1.8,5.43,5.43,0,0,0-4.25,2,6.86,6.86,0,0,0-1.39,5.62c.84,4.37,3.71,7,7.69,7a1.41,1.41,0,0,0,0-2.81c-2.63,0-4.34-1.62-4.93-4.69a4.12,4.12,0,0,1,.8-3.3,2.62,2.62,0,0,1,2.08-1,5.22,5.22,0,0,1,3,1.2,1.41,1.41,0,0,0,1.73-2.22Z" style="fill:#143c86"/><path d="M182.66,317.49l1.1,11.18h4.35a1.12,1.12,0,0,0,.93-1.75Z" style="fill:#fff"/><path d="M183.83,316.7a1.41,1.41,0,0,0-2-.38,1.39,1.39,0,0,0-.38,1.95h0l6.08,9h-3.81a1.41,1.41,0,1,0-.08,2.81h4.42a2.53,2.53,0,0,0,2.1-3.94Z" style="fill:#143c86"/><path d="M127.44,357.63c-5.86,0-13.9,9.08-13.19,14.57l10.32,79.45a9.58,9.58,0,0,0,9.68,8.08h60.48a9.59,9.59,0,0,0,9.68-8.08l8.46-64.7-7.2-29.32Z" style="fill:#fff"/><path d="M213.06,385.56a1.41,1.41,0,0,0-1.58,1.21L203,451.47a8.18,8.18,0,0,1-8.28,6.86H134.25a8.19,8.19,0,0,1-8.29-6.86L115.65,372c-.27-2.08,1.15-5.24,3.62-8.06,2.63-3,5.84-4.93,8.17-4.93h78.24a1.41,1.41,0,1,0,.07-2.81H127.44c-3.2,0-7,2.2-10.28,5.89-3.08,3.5-4.68,7.34-4.3,10.27l10.31,79.45a11,11,0,0,0,11.08,9.3h60.48a11,11,0,0,0,11.07-9.3l8.47-64.7a1.41,1.41,0,0,0-1.21-1.58Z" style="fill:#143c86"/><path d="M193.94,356.23H142.21a1.41,1.41,0,0,0-1.41,1.4,1.5,1.5,0,0,0,.1.52,29.26,29.26,0,0,0,54.35,0,1.4,1.4,0,0,0-.79-1.82A1.3,1.3,0,0,0,193.94,356.23Zm-25.87,17.52A25.54,25.54,0,0,1,144.36,359h47.43A25.54,25.54,0,0,1,168.07,373.75Z" style="fill:#c5edf9"/><path d="M168.79,373.75a1.4,1.4,0,0,0-1.4,1.4h0v84a1.41,1.41,0,0,0,2.81,0v-84a1.4,1.4,0,0,0-1.4-1.4Z" style="fill:#c5edf9"/><path d="M135.37,589.22H161V459.73H130.59Z" style="fill:#fff"/><path d="M161,458.32H130.58a1.42,1.42,0,0,0-1.4,1.42v0L134,589.28a1.41,1.41,0,0,0,1.4,1.35H161a1.41,1.41,0,0,0,1.41-1.41h0V459.73a1.41,1.41,0,0,0-1.41-1.41Zm-1.4,129.5H136.72L132,461.14h27.59Z" style="fill:#143c86"/><path d="M153.62,487.33h15.79l3.5,101.89h25.48V459.73H153.62Z" style="fill:#fff"/><path d="M198.39,458.32H153.62a1.41,1.41,0,0,0-.07,2.82H197V587.82H174.27l-3.45-100.53a1.41,1.41,0,0,0-1.4-1.36H153.63a1.41,1.41,0,1,0,0,2.81h14.43l3.46,100.53a1.4,1.4,0,0,0,1.4,1.36H198.4a1.41,1.41,0,0,0,1.4-1.41h0V459.73a1.41,1.41,0,0,0-1.4-1.41Z" style="fill:#143c86"/><path d="M215.58,631.54l-17.19-7.93V589.22H172.91v45.24a3.5,3.5,0,0,0,3.5,3.5h37.23a3.5,3.5,0,0,0,1.94-6.42Z" style="fill:#fff"/><path d="M216.36,630.37l-.19-.1-16.37-7.56V589.23a1.41,1.41,0,0,0-1.41-1.41H172.91a1.41,1.41,0,0,0-1.41,1.41h0v45.24a4.93,4.93,0,0,0,4.91,4.91h37.24a4.91,4.91,0,0,0,2.71-9Zm-.7,4.7a2,2,0,0,1-2,1.49H176.42a2.1,2.1,0,0,1-2.1-2.1V590.63H197v33a1.39,1.39,0,0,0,.82,1.27l17.08,7.89a2,2,0,0,1,.78,2.3Z" style="fill:#143c86"/><path d="M140.05,460.4a1.42,1.42,0,0,0-1.37,1.45l3.23,127a1.41,1.41,0,0,0,1.4,1.37h0a1.41,1.41,0,0,0,1.37-1.44l-3.23-127a1.4,1.4,0,0,0-1.43-1.38h0ZM178,484.61a1.4,1.4,0,0,0-1.36,1.44h0l2.61,102.79a1.4,1.4,0,0,0,1.4,1.37h0a1.4,1.4,0,0,0,1.36-1.44L179.41,486a1.4,1.4,0,0,0-1.43-1.37Z" style="fill:#c5edf9"/><path d="M178,631.54l-17.19-7.93V589.22H135.36v45.24a3.5,3.5,0,0,0,3.5,3.5h37.23a3.5,3.5,0,0,0,1.94-6.42Z" style="fill:#fff"/><path d="M178.81,630.37l-.19-.1-16.37-7.56V589.23a1.41,1.41,0,0,0-1.41-1.41H135.36a1.41,1.41,0,0,0-1.4,1.41v45.24a4.92,4.92,0,0,0,4.91,4.91H176.1a4.91,4.91,0,0,0,2.71-9Zm-.7,4.7a2,2,0,0,1-2,1.49H138.87a2.1,2.1,0,0,1-2.1-2.1V590.63h22.67v33a1.39,1.39,0,0,0,.82,1.27l17.08,7.89a2,2,0,0,1,.77,2.3Z" style="fill:#143c86"/><path d="M160.53,537.17H134.7a1.41,1.41,0,0,0,0,2.82h25.84a1.41,1.41,0,0,0,0-2.82Zm37.67,0H172.37a1.41,1.41,0,0,0,0,2.82H198.2a1.41,1.41,0,0,0,0-2.82Z" style="fill:#c5edf9"/><path d="M162.44,459.73a1.41,1.41,0,0,0-1.41-1.41H130.58a1.42,1.42,0,0,0-1.4,1.42v0L134,589.28a1.41,1.41,0,0,0,1.4,1.35H161a1.41,1.41,0,0,0,1.41-1.41h0V487.64a1.41,1.41,0,1,0-2.81,0V587.82H136.72L132,461.14h29a1.41,1.41,0,0,0,1.41-1.41Z" style="fill:#143c86"/><path d="M198.39,458.32H153.62a1.41,1.41,0,0,0-.07,2.82H197V587.82H174.27l-3.45-100.53a1.41,1.41,0,0,0-1.4-1.36H153.63a1.41,1.41,0,1,0,0,2.81h14.43l3.46,100.53a1.4,1.4,0,0,0,1.4,1.36H198.4a1.41,1.41,0,0,0,1.4-1.41h0V459.73a1.41,1.41,0,0,0-1.4-1.41Z" style="fill:#143c86"/><path d="M248.35,399.94c-2.82.68-8.42,2.23-11,4.46-3.49,3-5.38,8.61-5.38,8.61l14.89,1.8,4.91-10.75a3,3,0,0,0-3.38-4.12Z" style="fill:#fff"/><path d="M248,398.57c-3.13.75-8.81,2.37-11.62,4.76-3.74,3.18-5.72,9-5.8,9.24a1.39,1.39,0,0,0,1.16,1.84l14.89,1.79h.17a1.41,1.41,0,0,0,1.28-.82L253,404.64a4.38,4.38,0,0,0-5-6.07Zm2.43,4.9L246,413.29l-12.06-1.45a18.44,18.44,0,0,1,4.31-6.36c1.73-1.47,5.54-3,10.46-4.17a1.55,1.55,0,0,1,1.87,1.16,1.5,1.5,0,0,1-.1,1Z" style="fill:#143c86"/><path d="M243.77,203h5V638.67h-5Z" style="fill:#e0f4fc"/><path d="M248.79,201.55h-5a1.41,1.41,0,0,0-1.41,1.41V638.67a1.41,1.41,0,0,0,1.41,1.41h5a1.41,1.41,0,0,0,1.4-1.41h0V203a1.4,1.4,0,0,0-1.39-1.41Zm-1.41,435.72h-2.21V204.36h2.21Z" style="fill:#143c86"/><path d="M250.49,405.68,240,408.32l-11.61,2.9,3.23,16.14h19.64a3,3,0,0,0,3-3V408.55a3,3,0,0,0-3.68-2.87Z" style="fill:#fff"/><path d="M253.9,405.11a4.35,4.35,0,0,0-3.75-.79L239.6,407a1.4,1.4,0,0,0,.68,2.72h0l10.54-2.63a1.56,1.56,0,0,1,1.89,1.13,1.58,1.58,0,0,1,.05.38v15.85a1.56,1.56,0,0,1-1.56,1.55H232.72l-3-15a1.41,1.41,0,1,0-2.76.54h0l3.23,16.14a1.4,1.4,0,0,0,1.38,1.13h19.65a4.36,4.36,0,0,0,4.36-4.37V408.55a4.37,4.37,0,0,0-1.68-3.44Z" style="fill:#143c86"/><path d="M149.29,407.8c-1.6-2.84-3.1-5.71-4.45-8.49l-8.64-20.39a13.46,13.46,0,0,0-21.8-5.54l4.4,33.85c2,4.26,4.29,8.87,6.88,13.48,13.2,23.5,27.52,35.38,42.61,35.38a28.77,28.77,0,0,0,3.71-.24c10.52-1.34,22.1-3.39,32.57-5.46l3.69-28.21c-12,2.51-26.85,5.34-39.66,7-1.75.24-9.07-3.22-19.31-21.36Z" style="fill:#c5edf9"/><path d="M257.13,360.36,250,358.27l-10.55-2.63a3,3,0,0,0-3.59,2.15,2.84,2.84,0,0,0-.09.72v15.85a3,3,0,0,0,3,3h16.08A3.32,3.32,0,0,0,258.1,374c0-.08,0-.16,0-.24Z" style="fill:#fff"/><path d="M258.53,360.27a1.41,1.41,0,1,0-2.81.07s0,.08,0,.13l1,13.4a1.92,1.92,0,0,1-1.77,2H238.7a1.54,1.54,0,0,1-1.55-1.55V358.51A1.55,1.55,0,0,1,238.7,357a1.58,1.58,0,0,1,.38.05l10.55,2.64a1.41,1.41,0,0,0,.69-2.73h0l-10.55-2.64a4.38,4.38,0,0,0-5.3,3.18,4.73,4.73,0,0,0-.13,1.06v15.85a4.39,4.39,0,0,0,4.37,4.37h16.08A4.72,4.72,0,0,0,259.5,374c0-.12,0-.23,0-.34Z" style="fill:#143c86"/><path d="M213.06,385.56a1.41,1.41,0,0,0-1.58,1.21L203,451.47a8.19,8.19,0,0,1-8.28,6.86H134.25a8.19,8.19,0,0,1-8.29-6.86L115.65,372a1.41,1.41,0,0,0-2.79.36l10.31,79.45a11,11,0,0,0,11.08,9.3h60.48a11,11,0,0,0,11.07-9.3l8.47-64.7a1.41,1.41,0,0,0-1.21-1.58Zm-7.38-29.33H127.44a1.41,1.41,0,1,0,0,2.81h78.24a1.41,1.41,0,1,0,0-2.81Z" style="fill:#143c86"/><path d="M236.41,412.79a8.07,8.07,0,0,0-9.66-6.08c-12.26,2.77-35.2,7.7-53.85,10.07-1.74.24-9.06-3.22-19.31-21.36-1.6-2.84-3.09-5.71-4.45-8.48l-8.63-20.39a13.45,13.45,0,0,0-25.44,8.77,226,226,0,0,0,14.91,33c13.21,23.5,27.53,35.38,42.62,35.38a28.77,28.77,0,0,0,3.71-.24c19.92-2.54,43.68-7.63,56.41-10.52a8.08,8.08,0,0,0,6.09-9.67h0Z" style="fill:#fff"/><path d="M237.78,412.48a9.49,9.49,0,0,0-11.34-7.14c-12.06,2.73-35.07,7.67-53.71,10.05-.44,0-2.37-.61-5.53-3.61-2.7-2.56-7-7.6-12.38-17-1.48-2.61-3-5.44-4.42-8.41a1.4,1.4,0,0,0-1.89-.59,1.41,1.41,0,0,0-.63,1.83c1.48,3,3,5.9,4.49,8.55,10.33,18.29,18.07,22.43,20.71,22.07,18.76-2.4,41.87-7.36,54-10.1a6.69,6.69,0,0,1,8,5l2.4,10.48a6.68,6.68,0,0,1-5,8h0c-12.45,2.82-36.33,7.95-56.28,10.5a27.77,27.77,0,0,1-3.53.22c-14.54,0-28.46-11.66-41.39-34.66a223.92,223.92,0,0,1-14.81-32.78A12,12,0,1,1,139.18,367a1.41,1.41,0,1,0,2.66-.91h0a14.86,14.86,0,1,0-28.1,9.68,228.27,228.27,0,0,0,15,33.25c13.46,24,28.21,36.1,43.84,36.1a31.62,31.62,0,0,0,3.89-.25c20.06-2.56,44-7.71,56.55-10.55A9.48,9.48,0,0,0,240.18,423v0Z" style="fill:#143c86"/><path d="M236.18,424.58c-12.46,2.83-36.34,8-56.28,10.5a27.93,27.93,0,0,1-3.54.23c-14.53,0-28.46-11.66-41.39-34.66a225.1,225.1,0,0,1-14.81-32.79,1.41,1.41,0,0,0-2.66.91h0a227.1,227.1,0,0,0,15,33.24c13.46,24,28.21,36.1,43.84,36.1a31.61,31.61,0,0,0,3.89-.24c20.06-2.56,44-7.71,56.55-10.55a1.41,1.41,0,0,0-.54-2.76l-.08,0Z" style="fill:#c5edf9"/><path d="M243.77,176.48v74.37H429.45l21.28-39.43-21.28-34.94Z" style="fill:#0084ff"/><path d="M430.65,175.75a1.4,1.4,0,0,0-1.2-.67H243.77a1.41,1.41,0,0,0-1.41,1.4v74.37a1.41,1.41,0,0,0,1.41,1.41H429.45a1.4,1.4,0,0,0,1.24-.74L452,212.09a1.4,1.4,0,0,0,0-1.4Zm-2,73.7H245.17V177.89H428.66l20.45,33.57Z" style="fill:#143c86"/><path d="M1068.68,637.27H859.11a1.41,1.41,0,1,0-.08,2.81h209.65a1.41,1.41,0,0,0,0-2.81Z" style="fill:#143c86"/><path d="M829.05,391.37c-2.92,3.69-10.25,20-5.53,24.74,6.76,6.76,19.76,12.8,19.76,12.8l8.2-6.56L834.89,398.9s-1.95-12.45-5.84-7.53Z" style="fill:#fff"/><path d="M836.22,398.35a37.78,37.78,0,0,0-.92-3.92c-1-3.35-2.21-5.1-3.8-5.52-.86-.23-2.18-.14-3.55,1.59-1.61,2-4.24,7.24-5.87,12.44-2.7,8.63-1.25,12.47.44,14.16,6.86,6.86,19.63,12.83,20.17,13.09a1.53,1.53,0,0,0,.59.13,1.41,1.41,0,0,0,.88-.31l8.19-6.56a1.39,1.39,0,0,0,.27-1.91Zm6.87,28.91c-2.87-1.41-13-6.58-18.58-12.15-3.75-3.74,2.65-19.08,5.64-22.86a1.83,1.83,0,0,1,.66-.61c.67.28,2,3.28,2.69,7.48a1.28,1.28,0,0,0,.24.59l15.82,22.38Z" style="fill:#143c86"/><path d="M829.91,373.4a1.81,1.81,0,0,0-1.81,1.82,2.19,2.19,0,0,0,0,.36l6.9,33.7,3.85,6.36,59.61,1.08-8.87-43.32Z" style="fill:#6ebdff"/><path d="M891,373.12a1.4,1.4,0,0,0-1.38-1.13h-59.7a3.23,3.23,0,0,0-3.22,3.23,2.79,2.79,0,0,0,.07.64l6.9,33.7a1.44,1.44,0,0,0,.17.45l3.85,6.36a1.41,1.41,0,0,0,1.17.68l59.61,1.07h0a1.4,1.4,0,0,0,1.41-1.39,1.36,1.36,0,0,0,0-.29Zm-51.31,41.13-3.32-5.49-6.85-33.46a.41.41,0,0,1,.31-.49h58.64l8.29,40.48Z" style="fill:#143c86"/><path d="M894.9,376a3.19,3.19,0,0,0-3.14-2.56H832.45l8.87,43.32h57.62a3.52,3.52,0,0,0,3.52-3.52,3.34,3.34,0,0,0-.08-.7Z" style="fill:#a2dfff"/><path d="M896.28,375.68a4.63,4.63,0,0,0-4.51-3.69H832.45a1.41,1.41,0,0,0-1.41,1.4,1.5,1.5,0,0,0,0,.29L839.94,417a1.4,1.4,0,0,0,1.38,1.12h57.62a4.92,4.92,0,0,0,4.92-4.92,4.59,4.59,0,0,0-.1-1Zm4.3,38.86a2.13,2.13,0,0,1-1.64.78H842.47l-8.3-40.52h57.6a1.82,1.82,0,0,1,1.76,1.44L901,412.78a2.11,2.11,0,0,1-.43,1.76Z" style="fill:#143c86"/><path d="M838.4,377.64l7.05,34.43h50.42l-7.06-34.43Z" style="fill:#6ebdff"/><circle cx="945.67" cy="317.45" r="52.47" style="fill:#a2dfff"/><path d="M945.67,263.58a53.86,53.86,0,1,0,38.1,15.78A53.87,53.87,0,0,0,945.67,263.58Zm0,104.93a51.06,51.06,0,1,1,51.06-51.06A51.06,51.06,0,0,1,945.67,368.51Z" style="fill:#143c86"/><path d="M989.31,316a1.41,1.41,0,0,0-1.41,1.41,41.92,41.92,0,0,1-12.36,29.86,1.4,1.4,0,1,0,2,2h0a44.75,44.75,0,0,0,13.2-31.85A1.41,1.41,0,0,0,989.31,316ZM922,279.11a45,45,0,0,0-21.39,38.34,1.41,1.41,0,1,0,2.81,0,42.21,42.21,0,0,1,20.06-35.94,1.41,1.41,0,1,0-1.48-2.39Zm23.65-6.7a44.88,44.88,0,0,0-12.5,1.76,1.4,1.4,0,0,0,.39,2.75,1.6,1.6,0,0,0,.39-.05,42.29,42.29,0,0,1,11.73-1.65,1.41,1.41,0,0,0,0-2.81Zm-3.94,60.48-4.46,33.86,23.17.89V332.89l-6.73-17Z" style="fill:#fff"/><path d="M955,315.39a1.41,1.41,0,0,0-1.82-.79,1.48,1.48,0,0,0-.63.5l-12,17a1.44,1.44,0,0,0-.25.63l-4.45,33.86a1.39,1.39,0,0,0,1.21,1.57h.13l23.16.9h.06a1.41,1.41,0,0,0,1.4-1.41V332.89a1.3,1.3,0,0,0-.1-.52Zm4,50.79-20.17-.78,4.21-32,10.29-14.58L959,333.16Z" style="fill:#143c86"/><path d="M925.42,312.44l-.95,9.52-3.35,5a1.12,1.12,0,0,0,.3,1.56,1.09,1.09,0,0,0,.63.19h1.75l-.76,7.65a8.86,8.86,0,0,0,8,9.71,8.73,8.73,0,0,0,2.34-.07l10.41-1.74,14.06-41.73-19.31-1.17A12.39,12.39,0,0,0,925.42,312.44Z" style="fill:#fff"/><path d="M957.89,301.09l-19.32-1.17A13.72,13.72,0,0,0,924,312.3l-.92,9.17L920,326.14a2.52,2.52,0,0,0,2.09,3.94h.2l-.61,6.1a10.3,10.3,0,0,0,9.22,11.26c.32,0,.65.05,1,.05a11,11,0,0,0,1.72-.14L944,345.61a1.4,1.4,0,0,0-.46-2.77h0l-10.41,1.73a7.47,7.47,0,0,1-8.6-6.14,7.64,7.64,0,0,1-.07-2l.77-7.64a1.4,1.4,0,0,0-1.26-1.54h-1.36l3-4.52a1.26,1.26,0,0,0,.24-.64l1-9.53a10.94,10.94,0,0,1,11.58-9.86l19.32,1.17a1.4,1.4,0,1,0,.17-2.8Z" style="fill:#143c86"/><path d="M930.34,290.75c-5.38-.46-9,.92-9.42,5.22-.49,5.1,5.16,6.26,10.65,11.58,3.27,3.17,6.67,11.62,8,17.1.62,2.56.1,9.54,4.1,13.21,4.3,3.93,16.63,3.33,16.78,3.41s23.48-22.32,11-42.95C961.16,281.43,943.12,291.85,930.34,290.75Z" style="fill:#0084ff"/><path d="M942.27,288.35c-4.25.67-8.27,1.3-11.81,1-8.47-.73-10.62,3.13-10.94,6.49-.4,4.18,2.48,6.2,5.82,8.55a41.24,41.24,0,0,1,5.25,4.17c2.85,2.76,6.23,10.72,7.6,16.42a22.83,22.83,0,0,1,.3,2.33c.31,3.37.79,8.45,4.22,11.59,2.74,2.5,8.46,3.77,17,3.77h.73a1.41,1.41,0,0,0,1-.38,60.43,60.43,0,0,0,10.45-14.1c5.87-11.14,6.14-21.72.75-30.6C964.85,284.81,952.86,286.69,942.27,288.35Zm27.12,38.46a58.5,58.5,0,0,1-9.54,13.05h-.14c-4.44,0-12.23-.4-15.12-3-2.63-2.41-3-6.67-3.31-9.77a22.84,22.84,0,0,0-.37-2.74c-1.25-5.23-4.68-14.2-8.37-17.78a44.37,44.37,0,0,0-5.59-4.45c-3.3-2.32-4.88-3.54-4.64-6,.11-1.15.38-4,6.13-4,.54,0,1.13,0,1.77.08,3.88.34,8.06-.32,12.49-1,5.12-.8,10.41-1.63,15.2-.82,5.32.91,9.23,3.69,12.3,8.75,4.9,8.09,4.63,17.44-.8,27.77Z" style="fill:#143c86"/><path d="M938,318.79a6.53,6.53,0,0,0-3.87,1.5l1.83,10.32c3,0,5.51-1.73,6.3-5.83C942.8,321.88,940.94,318.79,938,318.79Z" style="fill:#fff"/><path d="M938,317.39a7.91,7.91,0,0,0-4.74,1.79A1.41,1.41,0,0,0,935,321.4a5.22,5.22,0,0,1,3-1.2,2.67,2.67,0,0,1,2.09,1,4.06,4.06,0,0,1,.79,3.3c-.59,3.07-2.29,4.69-4.92,4.69a1.41,1.41,0,0,0,0,2.81c4,0,6.84-2.61,7.68-7a6.85,6.85,0,0,0-1.39-5.62A5.43,5.43,0,0,0,938,317.39Z" style="fill:#143c86"/><path d="M979.2,459.73H934.43l12,27.6,3.8,1.9,1.65,47.3,10,52.7h25.48l-8.12-53.3Z" style="fill:#fff"/><path d="M980.6,535.83v-76.1a1.41,1.41,0,0,0-1.4-1.41H934.43a1.41,1.41,0,0,0,0,2.81H977.8v74.8a1.48,1.48,0,0,0,0,.21l7.87,51.68H963l-9.73-51.45-1.66-47.19a1.39,1.39,0,0,0-.77-1.21l-3.8-1.9a1.42,1.42,0,0,0-1.89.63,1.41,1.41,0,0,0,.63,1.89h0l3.05,1.52,1.63,46.46a1.49,1.49,0,0,0,0,.21l10,52.7a1.4,1.4,0,0,0,1.38,1.15h25.48a1.41,1.41,0,0,0,1.4-1.41,1.48,1.48,0,0,0,0-.21Z" style="fill:#143c86"/><path d="M911.39,459.73l4.78,129.49h25.67V493.84s10.22-1.53,15.57-9.14l-15.57-25Z" style="fill:#fff"/><path d="M958.21,483.56a1.39,1.39,0,0,0-2,.34c-4.93,7-14.53,8.54-14.63,8.55a1.4,1.4,0,0,0-1.2,1.39v94H917.52l-4.67-126.68h29a1.41,1.41,0,0,0,.07-2.82H911.39a1.42,1.42,0,0,0-1.4,1.42v0l4.78,129.5a1.41,1.41,0,0,0,1.4,1.35h25.67a1.41,1.41,0,0,0,1.41-1.41h0V495c3-.67,10.73-3,15.31-9.49a1.4,1.4,0,0,0-.35-1.95Z" style="fill:#143c86"/><path d="M961.51,538.24l-1.3-49.15a1.39,1.39,0,0,0-1.4-1.37h0a1.41,1.41,0,0,0-1.37,1.44h0l1.3,49.25a1.49,1.49,0,0,0,0,.21l9,50.42a1.41,1.41,0,1,0,2.77-.5h0Z" style="fill:#c5edf9"/><path d="M979,537.18H953.18a1.41,1.41,0,1,0,0,2.81H979a1.41,1.41,0,1,0,0-2.81Z" style="fill:#c5edf9"/><path d="M916.31,625.5l-7.37,6c-2.46,2.25-1.53,6.43,1.94,6.43h27.46a3.51,3.51,0,0,0,3.5-3.5V589.23H916.17Z" style="fill:#e0f4fc"/><path d="M941.84,587.82H916.17a1.4,1.4,0,0,0-1.4,1.4h0l.13,35.6-6.85,5.62,0,0a5.45,5.45,0,0,0-1.51,6,4.51,4.51,0,0,0,4.39,2.92h27.45a4.91,4.91,0,0,0,4.91-4.91V589.22A1.4,1.4,0,0,0,941.84,587.82Zm-1.41,46.64a2.1,2.1,0,0,1-2.1,2.1H910.88a1.72,1.72,0,0,1-1.77-1.12,2.63,2.63,0,0,1,.76-2.84l7.33-6a1.42,1.42,0,0,0,.51-1.09l-.13-34.86h22.85Z" style="fill:#143c86"/><path d="M987.32,589.22H961.65l6.53,36.28-6.3,6A4,4,0,0,0,965,638H992.4a2.86,2.86,0,0,0,3-2.76,2.62,2.62,0,0,0-.07-.74Z" style="fill:#e0f4fc"/><path d="M988.7,589a1.4,1.4,0,0,0-1.38-1.16H961.65a1.41,1.41,0,0,0-1.41,1.41,1,1,0,0,0,0,.24l6.4,35.53-5.76,5.53-.06.06a5.15,5.15,0,0,0-.81,5.55,5.31,5.31,0,0,0,4.91,3.23h27.46a4.3,4.3,0,0,0,3.36-1.51,4.42,4.42,0,0,0,.91-3.64Zm4.91,47.08a1.54,1.54,0,0,1-1.2.5H965a2.52,2.52,0,0,1-2.33-1.55,2.32,2.32,0,0,1,.28-2.49l6.26-6a1.41,1.41,0,0,0,.41-1.26l-6.24-34.62h22.81l7.77,44.08a1.6,1.6,0,0,1-.3,1.35Z" style="fill:#143c86"/><path d="M941.34,537.18H915.51a1.41,1.41,0,1,0,0,2.81h25.83a1.41,1.41,0,1,0,0-2.81Z" style="fill:#c5edf9"/><path d="M988.54,359.68H920c-6.12,0-16.08,5.21-15.6,11.31l7,88.74h67a9.51,9.51,0,0,0,9.41-8.19l11.12-79.92A10.48,10.48,0,0,0,990,359.78a10,10,0,0,0-1.44-.1Z" style="fill:#fff"/><path d="M988.54,358.27H920a22.05,22.05,0,0,0-14.38,6.36A8.55,8.55,0,0,0,903,371.1l7,88.74a1.41,1.41,0,0,0,1.4,1.3h67a11,11,0,0,0,10.8-9.4l11.13-79.92a11.91,11.91,0,0,0-10.15-13.43,12.78,12.78,0,0,0-1.64-.11Zm9,13.15-11.13,79.92a8.12,8.12,0,0,1-8,7h-65.7l-6.89-87.44a5.84,5.84,0,0,1,1.88-4.35A19.22,19.22,0,0,1,920,361.08h68.54a9.09,9.09,0,0,1,9.09,9.09A8.66,8.66,0,0,1,997.54,371.42Z" style="fill:#143c86"/><circle cx="871.22" cy="393.45" r="4.84" style="fill:#c5edf9"/><path d="M871.6,392.1l-22.5-6.43a1.41,1.41,0,0,0-.77,2.7l22.5,6.42a1.4,1.4,0,0,0,.77-2.69Z" style="fill:#c5edf9"/><path d="M883.59,381c-3.88,2.05-15.32,8.7-12.35,11.8,2.51,2.61,14-8.76,16.65-5.84,2.92,3.26-5.53,6.76-3.33,9.93s20.58-8.5,20.58-8.5l2-7.06-18.54-1.44A6.87,6.87,0,0,0,883.59,381Z" style="fill:#fff"/><path d="M907.2,379.88l-18.47-1.42a7.85,7.85,0,0,0-5.51,1.1l-.28.16c-3.85,2-12.88,7.19-13.55,11.32a3.08,3.08,0,0,0,.84,2.69c2,2.09,5.62-.12,9.8-2.67a48,48,0,0,1,4.58-2.59,5.27,5.27,0,0,1,2-.63.55.55,0,0,1,.18,0c.52.59.37,1.12-1.57,3.33-1.5,1.7-3.56,4-1.87,6.47a2.81,2.81,0,0,0,2.49,1.12c2.11,0,5.43-1.23,10.39-3.78s9.56-5.42,9.6-5.45a1.37,1.37,0,0,0,.61-.82l2-7.06a1.41,1.41,0,0,0-1-1.73l-.27-.05Zm-3.26,7.57c-1.2.73-4.57,2.76-8.18,4.65-7.56,4-9.69,3.92-10.11,3.84-.22-.54.4-1.39,1.73-2.9,1.56-1.77,3.9-4.43,1.55-7.06-2.11-2.36-6.12.09-10.36,2.68-1.89,1.16-5.4,3.3-6.35,3.08a.25.25,0,0,1-.05-.25c.29-1.82,5.49-5.81,12.08-9.28l.35-.19a5,5,0,0,1,3.7-.78h.14l16.84,1.3Z" style="fill:#143c86"/><path d="M841,411.5c-.92-2.15,1.08-13.68-2.3-14.6s-6,12.29-6,12.29l7.07,18.44,2.91-.62,4.3-10.75S842,413.65,841,411.5Z" style="fill:#fff"/><path d="M847.67,415c-1.87-1-4.86-2.92-5.35-4.06a22,22,0,0,1-.14-4.22c.09-4.82.18-10.3-3.08-11.18a2.79,2.79,0,0,0-2.25.36c-3.17,2-5.13,11.18-5.5,13a1.41,1.41,0,0,0,2.76.55q.6-2.89,1.48-5.73c1.49-4.64,2.61-5.38,2.79-5.47.18.1.6.66.83,2.42a44.45,44.45,0,0,1,.16,6c0,2.77,0,4.39.36,5.36.83,1.92,3.79,3.85,5.52,4.84l-3.56,8.9-2.18.46a1.41,1.41,0,1,0,.58,2.75l2.91-.61a1.44,1.44,0,0,0,1-.85l4.3-10.76a1.41,1.41,0,0,0-.65-1.77Z" style="fill:#143c86"/><path d="M902.38,369.06,882.47,418.2,853.94,408c-8-2.79-10.9,3.74-13.69,11.75s-4.43,14.48,3.58,17.27l36.33,12.9a22,22,0,0,0,27.68-12.54L926,394.5l-4.43-34.82C912.39,359.67,905.56,361.2,902.38,369.06Z" style="fill:#fff"/><path d="M926.59,393.2a1.4,1.4,0,0,0-1.84.74h0l-18.2,42.91a20.61,20.61,0,0,1-25.91,11.74L844.3,435.7c-4.07-1.41-4.76-3.66-4.9-5.46-.23-2.8,1-6.48,2.18-10s2.64-7.27,4.6-9.44,4.15-2.53,7.29-1.44L882,419.52a1.41,1.41,0,0,0,1.78-.8l19.91-49.13c2.87-7.09,9-8.51,17.93-8.51a1.41,1.41,0,0,0,0-2.81c-9.83,0-17.09,1.74-20.54,10.26l-19.4,47.89-27.27-9.73c-4.19-1.46-7.66-.72-10.31,2.2-2.32,2.55-3.82,6.54-5.17,10.4s-2.61,7.83-2.33,11.17c.31,3.83,2.53,6.41,6.77,7.89l36.34,12.9a23.43,23.43,0,0,0,29.44-13.32L927.35,395a1.41,1.41,0,0,0-.75-1.83Z" style="fill:#143c86"/><path d="M916.35,395.72a1.4,1.4,0,0,0-1.84.73h0l-14,33a15.49,15.49,0,0,1-19.5,8.82l-37.87-12.55a1.41,1.41,0,0,0-.88,2.67l37.84,12.54a18.3,18.3,0,0,0,23-10.4l14-32.93a1.41,1.41,0,0,0-.74-1.84Zm-67.64-11.16a2.46,2.46,0,1,0,2.46,2.46h0A2.46,2.46,0,0,0,848.71,384.56Z" style="fill:#c5edf9"/><path d="M1005.57,349H951.86v99.84h53.71a8.18,8.18,0,0,0,8.18-8.18V357.17A8.18,8.18,0,0,0,1005.57,349Z" style="fill:#fff"/><path d="M1005.57,347.59H951.86a1.4,1.4,0,0,0-1.4,1.4h0v99.83a1.41,1.41,0,0,0,1.4,1.41h53.71a9.61,9.61,0,0,0,9.59-9.59V357.17a9.6,9.6,0,0,0-9.59-9.58Zm6.78,93.05a6.8,6.8,0,0,1-6.78,6.78h-52.3v-97h52.3a6.78,6.78,0,0,1,6.78,6.77Z" style="fill:#143c86"/><path d="M932.43,357.17v83.47a8.18,8.18,0,0,0,8.18,8.18h11.25V349H940.61a8.18,8.18,0,0,0-8.18,8.18Z" style="fill:#e0f4fc"/><path d="M951.86,347.59H940.61a9.59,9.59,0,0,0-9.58,9.58v83.47a9.6,9.6,0,0,0,9.58,9.59h11.25a1.41,1.41,0,0,0,1.41-1.41h0V349a1.41,1.41,0,0,0-1.41-1.4Zm-1.4,99.83h-9.85a6.78,6.78,0,0,1-6.77-6.77V357.17a6.77,6.77,0,0,1,6.77-6.77h9.85Z" style="fill:#143c86"/><path d="M982.81,380a1.41,1.41,0,0,0-1.41,1.41h0v62.68a1.41,1.41,0,0,0,2.81,0V381.39a1.4,1.4,0,0,0-1.4-1.41Z" style="fill:#c5edf9"/><path d="M1008.43,349H951.86v32.09h61.89V354.31A5.32,5.32,0,0,0,1008.43,349Z" style="fill:#fff"/><path d="M1008.43,347.59H951.86a1.4,1.4,0,0,0-1.4,1.4h0v32.09a1.41,1.41,0,0,0,1.4,1.41h61.89a1.41,1.41,0,0,0,1.41-1.4h0V354.31a6.74,6.74,0,0,0-6.73-6.72Zm3.92,32.09H953.27V350.4h55.16a3.92,3.92,0,0,1,3.92,3.91Z" style="fill:#143c86"/><path d="M980.6,535.83v-76.1a1.4,1.4,0,0,0-1.4-1.41H934.43a1.41,1.41,0,0,0,0,2.81H977.8v74.8a1.48,1.48,0,0,0,0,.21l7.88,51.68H963l-9.73-51.45-.9-25.55a1.42,1.42,0,0,0-1.4-1.36h-.05a1.42,1.42,0,0,0-1.36,1.46l.9,25.66a.76.76,0,0,0,0,.21l10,52.7a1.4,1.4,0,0,0,1.38,1.14h25.48a1.41,1.41,0,0,0,1.41-1.41,1.49,1.49,0,0,0,0-.21Z" style="fill:#143c86"/><path d="M958.21,483.56a1.39,1.39,0,0,0-2,.34c-4.93,7-14.53,8.54-14.63,8.55a1.4,1.4,0,0,0-1.2,1.39v94H917.52l-4.67-126.68h29a1.41,1.41,0,0,0,.07-2.82H911.39a1.42,1.42,0,0,0-1.4,1.42v0l4.78,129.5a1.41,1.41,0,0,0,1.4,1.35h25.67a1.41,1.41,0,0,0,1.41-1.41h0V495c3-.67,10.73-3,15.31-9.49a1.4,1.4,0,0,0-.35-1.95Z" style="fill:#143c86"/><path d="M701.81,308.27c-1.12,5.72,4.84,11.67,7.43,11.19,3-.56,3.6,18.15,6.24,17.73,4.68-.73.31-28.88.31-28.88S702.94,302.55,701.81,308.27Z" style="fill:#e0f4fc"/><path d="M717.18,308.1a1.41,1.41,0,0,0-.82-1.07c-1-.43-9.56-4.17-13.71-2a4.16,4.16,0,0,0-2.22,3c-.8,4,1.38,8,3.69,10.3.84.85,2.93,2.73,5,2.59.76,1.05,1.58,5.45,2.08,8.14,1.07,5.71,1.79,9.58,4.12,9.58a2.19,2.19,0,0,0,.36,0c2.41-.38,3-3.65,3.2-6.09a65.62,65.62,0,0,0-.11-10.11c-.5-7.11-1.6-14.21-1.61-14.28Zm-1.65,27.16a51.93,51.93,0,0,1-1.54-6.75c-.45-2.37-.9-4.83-1.46-6.68-.32-1.06-1.14-3.79-3.12-3.79a2.85,2.85,0,0,0-.42,0c-.3.06-1.44-.31-2.88-1.76-1.71-1.73-3.5-4.81-2.92-7.78a1.34,1.34,0,0,1,.76-1c2.07-1.07,7.29.43,10.56,1.79.28,1.91,1,7.11,1.42,12.46.7,9.13.05,12.38-.4,13.51Z" style="fill:#143c86"/><path d="M699.32,308.06c-1.63,5.59-2.71,21.54.87,22.75,4.3,1.45,2.92-10.7,5.54-10.95,3.07-.29,2,18.4,4.65,18.21,2.5-.17,3.16-8.2,3.22-15.74l-.36-13S700.94,302.46,699.32,308.06Z" style="fill:#e0f4fc"/><path d="M713.61,320.93h0a1.41,1.41,0,0,0-1.41,1.39c-.07,9.47-1,12.73-1.6,13.83a54.39,54.39,0,0,1-.94-6.86c-.23-2.4-.47-4.89-.86-6.78-.24-1.16-.88-4.27-3.2-4.05s-2.66,2.92-3.19,6.06c-.26,1.59-.76,4.55-1.48,5a.51.51,0,0,1-.29,0c-.31-.13-1.47-1.92-1.43-8.48a54.63,54.63,0,0,1,1.46-12.55,1.35,1.35,0,0,1,.84-1c2.32-1,8,1.38,11,3.08a1.4,1.4,0,0,0,1.37-2.45c-.93-.52-9.16-5-13.48-3.23a4.15,4.15,0,0,0-2.48,2.78,57.63,57.63,0,0,0-1.57,13.41c0,9.93,2.5,10.79,3.34,11.07a3,3,0,0,0,2.63-.22c1.83-1.1,2.33-4.06,2.82-6.93.14-.87.36-2.14.6-3a52.45,52.45,0,0,1,1.07,7.57c.57,5.95,1,9.92,3.45,9.92h.17c2.53-.18,3.39-3.67,3.81-6.29a74.2,74.2,0,0,0,.71-10.84,1.4,1.4,0,0,0-1.38-1.42Z" style="fill:#143c86"/><path d="M555.16,107.33c.55-3.68-.29-6.23-2.73-5.59-3.14.81-4.91,14.19-4.91,14.19l-5.19,23.75s11.06-1.77,14.06-4.5,3-9.69,2.46-12.55C557.89,117.57,554.12,114.36,555.16,107.33Z" style="fill:#fff"/><path d="M558.37,117.07c-1.25-2.79-2.43-5.43-1.82-9.53.32-2.16.36-5-1.27-6.5a3.38,3.38,0,0,0-3.2-.66c-1.92.5-3.36,3.1-4.65,8.43-.84,3.48-1.29,6.8-1.31,6.94a1.41,1.41,0,1,0,2.79.37s.43-3.22,1.22-6.5c1.43-6,2.65-6.51,2.66-6.52.44-.11.57,0,.61,0,.29.26.75,1.43.37,4-.73,4.91.74,8.19,2,11.08a20.46,20.46,0,0,1,1.66,4.67c.55,2.88.34,9.11-2,11.26-.6.54-2.38,1.65-7.53,2.94-3,.77-5.78,1.2-5.8,1.21a1.41,1.41,0,0,0,.44,2.78h0c1.17-.19,11.56-1.93,14.78-4.85,2-1.8,2.72-4.85,3-7.1a23.93,23.93,0,0,0-.12-6.76A23.49,23.49,0,0,0,558.37,117.07Z" style="fill:#143c86"/><path d="M539.33,91.5c-2.6.82-2.56,4.58-1.64,8.33,1.64,6.69,3.55,14.06,3.55,14.06L532.6,119a5.78,5.78,0,0,0-2.05,7.92,4.72,4.72,0,0,0,.35.52l8.83,11.84,11.6-20.06-6.41-21.56S543.52,90.18,539.33,91.5Z" style="fill:#fff"/><path d="M546.29,97.31c-.16-.79-1.13-5.15-3.82-6.76a4.27,4.27,0,0,0-3.57-.39c-1.74.55-4.4,2.58-2.58,10,1.27,5.16,2.71,10.79,3.29,13l-7.72,4.56a7.19,7.19,0,0,0-2.55,9.85c.13.22.28.44.43.65l8.84,11.85a1.41,1.41,0,0,0,2.26-1.68h0L532,126.59a4.39,4.39,0,0,1,.88-6.14c.13-.09.26-.18.4-.26l8.64-5.1a1.39,1.39,0,0,0,.65-1.56c0-.07-1.93-7.44-3.55-14-.7-2.89-.89-6.15.7-6.65A1.45,1.45,0,0,1,541,93c1.3.77,2.23,3.44,2.52,4.94a.58.58,0,0,0,0,.14L550,119.61a1.4,1.4,0,1,0,2.69-.79h0Z" style="fill:#143c86"/><path d="M710.51,203.49c-.79-8.43-8-15-16.49-14.4a15.36,15.36,0,0,0-14.17,16.46c0,.09,0,.19,0,.29l9.67,103.33a6.63,6.63,0,0,0,7.22,6l17.38-1.63a6.63,6.63,0,0,0,6-7.22Z" style="fill:#e0f4fc"/><path d="M711.91,203.35C711,194,703,187,693.92,187.69a16.76,16.76,0,0,0-15.47,18c0,.1,0,.21,0,.31l9.67,103.34a8.05,8.05,0,0,0,8,7.29,6.28,6.28,0,0,0,.75,0l17.38-1.62a8.06,8.06,0,0,0,7.26-8.76ZM714,312.14l-17.38,1.62a5.23,5.23,0,0,1-5.69-4.72h0l-9.67-103.33a14,14,0,0,1,12.6-15.2l.26,0c.33,0,.67,0,1,0a14.35,14.35,0,0,1,14,13.16l9.62,102.83a5.24,5.24,0,0,1-4.72,5.7Z" style="fill:#143c86"/><circle cx="665.91" cy="153.32" r="52.47" style="fill:#a2dfff"/><path d="M665.91,99.45A53.88,53.88,0,1,0,704,115.23,53.87,53.87,0,0,0,665.91,99.45Zm0,104.93A51.06,51.06,0,1,1,717,153.32h0A51.13,51.13,0,0,1,665.91,204.38Z" style="fill:#143c86"/><path d="M709.55,151.91a1.41,1.41,0,0,0-1.41,1.41,42,42,0,0,1-12.36,29.86,1.4,1.4,0,1,0,2,2h0A44.75,44.75,0,0,0,711,153.32a1.42,1.42,0,0,0-1.41-1.41ZM642.26,115a45,45,0,0,0-21.39,38.34,1.41,1.41,0,1,0,2.81,0,42.21,42.21,0,0,1,20.06-35.95,1.41,1.41,0,1,0-1.48-2.39Zm23.65-6.7a44.83,44.83,0,0,0-12.5,1.76,1.4,1.4,0,1,0,.68,2.72l.1,0a41.9,41.9,0,0,1,11.72-1.65,1.41,1.41,0,1,0,0-2.81ZM662,168.76l-4.46,33.86,23.17.89V168.76l-6.73-17Z" style="fill:#fff"/><path d="M675.25,151.26a1.41,1.41,0,0,0-1.82-.79,1.54,1.54,0,0,0-.63.5l-12,17a1.44,1.44,0,0,0-.25.63l-4.45,33.86a1.41,1.41,0,0,0,1.21,1.58h.13l23.16.89h.06a1.41,1.41,0,0,0,1.4-1.41V168.76a1.34,1.34,0,0,0-.1-.52Zm4,50.79-20.17-.77,4.21-32,10.29-14.57L679.27,169Z" style="fill:#143c86"/><path d="M645.66,148.31l-.95,9.52-3.35,5a1.12,1.12,0,0,0,.3,1.56,1.14,1.14,0,0,0,.63.19H644l-.76,7.64a8.88,8.88,0,0,0,8,9.72,8.75,8.75,0,0,0,2.34-.08L664,180.09,678,138.36l-19.31-1.18A12.39,12.39,0,0,0,645.66,148.31Z" style="fill:#fff"/><path d="M678.13,137l-19.32-1.17a13.73,13.73,0,0,0-14.54,12.38l-.92,9.17L640.2,162a2.52,2.52,0,0,0,2.09,3.94h.2l-.61,6.1a10.29,10.29,0,0,0,9.22,11.26c.32,0,.65.05,1,.05a11,11,0,0,0,1.72-.14l10.41-1.74a1.4,1.4,0,0,0-.46-2.77l-10.41,1.73a7.47,7.47,0,0,1-8.6-6.14,7.64,7.64,0,0,1-.07-2l.77-7.64a1.41,1.41,0,0,0-1.26-1.54h-1.36l3-4.52a1.47,1.47,0,0,0,.24-.64l.95-9.53a10.94,10.94,0,0,1,11.58-9.86L678,139.77a1.41,1.41,0,0,0,.23-2.81Z" style="fill:#143c86"/><path d="M669,129.08c-14.69,1.59-19.2,11.06-19.2,11.06s8,2.15,10,20.38c.29,2.62.1,9.55,4.1,13.21,4.29,3.93,16.63,3.33,16.78,3.42s15.63-6.9,15.78-25.34C696.62,132.76,680.33,127.85,669,129.08Z" style="fill:#0084ff"/><path d="M690.79,133.93c-5.33-4.83-13.55-7.16-22-6.25-15.3,1.65-20.12,11.44-20.32,11.85a1.41,1.41,0,0,0,0,1.19,1.38,1.38,0,0,0,.9.77c.07,0,7.14,2.36,9,19.19,0,.36.07.83.11,1.38.23,3.45.62,9.22,4.43,12.7,2.74,2.51,8.46,3.78,17,3.78h.72a1.42,1.42,0,0,0,.57-.12,29.86,29.86,0,0,0,16.62-26.61h0C697.93,144.26,695.55,138.24,690.79,133.93Zm-3.22,36.4a28,28,0,0,1-7.2,5.4H680c-4.44,0-12.23-.4-15.12-3s-3.32-7.79-3.52-10.82c0-.58-.08-1.08-.13-1.51-1.58-14.13-6.75-19.13-9.43-20.8,1.72-2.45,6.69-7.93,17.36-9.08,5.9-.64,14.2.48,19.78,5.53,4.14,3.75,6.21,9.06,6.16,15.79a26.11,26.11,0,0,1-7.47,18.53Z" style="fill:#143c86"/><path d="M658.22,154.67a6.47,6.47,0,0,0-3.87,1.5l1.83,10.32c3,0,5.51-1.74,6.3-5.83C663,157.75,661.18,154.67,658.22,154.67Z" style="fill:#fff"/><path d="M658.22,153.26a7.91,7.91,0,0,0-4.74,1.79,1.41,1.41,0,0,0,1.73,2.22h0a5.22,5.22,0,0,1,3-1.2,2.67,2.67,0,0,1,2.09,1,4.06,4.06,0,0,1,.79,3.3c-.59,3.07-2.29,4.69-4.92,4.69a1.41,1.41,0,1,0-.08,2.81h.08c4,0,6.84-2.61,7.68-7a6.85,6.85,0,0,0-1.39-5.62A5.43,5.43,0,0,0,658.22,153.26Z" style="fill:#143c86"/><path d="M699.44,295.6H654.67l12,27.61,3.8,1.9,4.11,47.29,11.2,52.71h25.48l-9.35-53.29Z" style="fill:#fff"/><path d="M703.3,371.66l-2.46-76.1a1.4,1.4,0,0,0-1.4-1.36H654.67a1.41,1.41,0,1,0-.07,2.81h43.48l2.42,74.84a1.23,1.23,0,0,0,0,.2l9.06,51.65H686.91L676,372.2,671.86,325a1.42,1.42,0,0,0-.77-1.13l-3.8-1.9a1.4,1.4,0,1,0-1.26,2.51l3.09,1.55,4,46.51a.86.86,0,0,0,0,.17l11.19,52.7a1.41,1.41,0,0,0,1.38,1.12h25.48a1.41,1.41,0,0,0,1.4-1.41,1,1,0,0,0,0-.24Z" style="fill:#143c86"/><path d="M631.63,295.6l-4,78.9-2.31,50.6H651l4.18-50.64,6.91-44.74s10.21-1.53,15.56-9.14l-15.56-25Z" style="fill:#fff"/><path d="M678.45,319.42a1.4,1.4,0,0,0-2,.35c-4.93,7-14.53,8.54-14.63,8.55a1.4,1.4,0,0,0-1.18,1.18l-6.91,44.74s0,.06,0,.1l-4.08,49.35h-22.9L629,374.57,633,297h29.11a1.41,1.41,0,0,0,0-2.81H631.63a1.4,1.4,0,0,0-1.4,1.33l-4,78.9L623.92,425a1.4,1.4,0,0,0,1.34,1.47H651a1.4,1.4,0,0,0,1.4-1.29l4.18-50.59,6.75-43.71c2.84-.62,10.81-2.89,15.48-9.53a1.39,1.39,0,0,0-.34-1.95Z" style="fill:#143c86"/><path d="M684.2,374.06l-3.75-49.17a1.41,1.41,0,0,0-2.8.22l3.76,49.25a1.1,1.1,0,0,0,0,.18L691.71,425a1.4,1.4,0,0,0,2.75-.56Z" style="fill:#c5edf9"/><path d="M701.71,373.05H675.88a1.41,1.41,0,1,0,0,2.81h25.83a1.41,1.41,0,0,0,0-2.81Z" style="fill:#c5edf9"/><path d="M624,461.37l-8.43,6c-2.87,2.25-2.67,6.43.8,6.43h27.46a4.36,4.36,0,0,0,4.12-3.5L651,425.1H625.32Z" style="fill:#e0f4fc"/><path d="M651,423.69H625.31a1.41,1.41,0,0,0-1.4,1.35l-1.31,35.59-7.87,5.64-.05,0a5.93,5.93,0,0,0-2.29,6.32,4,4,0,0,0,4,2.62h27.46a5.76,5.76,0,0,0,5.51-4.67c0-.05,0-.1,0-.15l3.06-45.23a1.4,1.4,0,0,0-1.31-1.5Zm-4.46,46.46a3,3,0,0,1-2.72,2.28H616.35c-1.05,0-1.24-.55-1.3-.73a3.17,3.17,0,0,1,1.35-3.17l8.4-6a1.39,1.39,0,0,0,.58-1.09l1.29-34.92h22.81Z" style="fill:#143c86"/><path d="M711.25,425.09H685.58l6.53,36.28-6.3,6a4,4,0,0,0,3.07,6.43h27.45a2.87,2.87,0,0,0,3-2.76,3,3,0,0,0-.07-.74Z" style="fill:#e0f4fc"/><path d="M712.63,424.85a1.4,1.4,0,0,0-1.38-1.16H685.58a1.41,1.41,0,0,0-1.41,1.4,2,2,0,0,0,0,.25l6.4,35.53-5.75,5.53-.06.06A5.13,5.13,0,0,0,684,472a5.31,5.31,0,0,0,4.91,3.23h27.46a4.3,4.3,0,0,0,3.36-1.51,4.46,4.46,0,0,0,.91-3.64Zm4.91,47.08a1.5,1.5,0,0,1-1.2.5H688.88a2.52,2.52,0,0,1-2.33-1.55,2.33,2.33,0,0,1,.28-2.49l6.26-6a1.41,1.41,0,0,0,.41-1.26l-6.24-34.62h22.81l7.77,44.08a1.58,1.58,0,0,1-.3,1.34Z" style="fill:#143c86"/><path d="M654.51,373.05H628.68a1.41,1.41,0,0,0,0,2.81h25.83a1.41,1.41,0,1,0,0-2.81Z" style="fill:#c5edf9"/><path d="M708.78,195.55H640.24c-6.12,0-16.08,5.22-15.6,11.32l7,88.73h67a9.49,9.49,0,0,0,9.41-8.19l11.13-79.92a10.5,10.5,0,0,0-8.95-11.84,10,10,0,0,0-1.44-.1Z" style="fill:#fff"/><path d="M708.79,194.14H640.24a22.08,22.08,0,0,0-14.38,6.36,8.6,8.6,0,0,0-2.62,6.47l7,88.74a1.41,1.41,0,0,0,1.4,1.3h67a11,11,0,0,0,10.8-9.4l11.12-79.93a11.89,11.89,0,0,0-10.15-13.42,11.18,11.18,0,0,0-1.63-.12Zm9,13.15-11.13,79.92a8.12,8.12,0,0,1-8,7H632.93L626,206.75a5.88,5.88,0,0,1,1.88-4.35A19.24,19.24,0,0,1,640.24,197h68.55a9.09,9.09,0,0,1,9.08,9.09,10.36,10.36,0,0,1-.08,1.25Z" style="fill:#143c86"/><path d="M725.81,184.86H672.1V284.7h53.71a8.19,8.19,0,0,0,8.18-8.19V193A8.18,8.18,0,0,0,725.81,184.86Z" style="fill:#fff"/><path d="M725.81,183.46H672.1a1.4,1.4,0,0,0-1.4,1.4h0v99.83a1.41,1.41,0,0,0,1.4,1.41h53.71a9.61,9.61,0,0,0,9.59-9.59V193a9.6,9.6,0,0,0-9.59-9.58Zm6.78,93a6.79,6.79,0,0,1-6.78,6.78h-52.3v-97h52.3a6.78,6.78,0,0,1,6.78,6.77Z" style="fill:#143c86"/><path d="M652.67,193v83.48a8.18,8.18,0,0,0,8.18,8.18H672.1V184.86H660.85a8.18,8.18,0,0,0-8.18,8.18Z" style="fill:#e0f4fc"/><path d="M672.1,183.46H660.85a9.58,9.58,0,0,0-9.58,9.58v83.47a9.59,9.59,0,0,0,9.58,9.59H672.1a1.41,1.41,0,0,0,1.41-1.4h0V184.86a1.41,1.41,0,0,0-1.41-1.4Zm-1.4,99.83h-9.85a6.78,6.78,0,0,1-6.77-6.78V193a6.77,6.77,0,0,1,6.77-6.77h9.85Z" style="fill:#143c86"/><path d="M703.05,215.85a1.41,1.41,0,0,0-1.41,1.4h0v62.67a1.41,1.41,0,1,0,2.81,0V217.26a1.41,1.41,0,0,0-1.4-1.41Z" style="fill:#c5edf9"/><path d="M728.67,184.86H672.1V217H734V190.18A5.33,5.33,0,0,0,728.67,184.86Z" style="fill:#fff"/><path d="M728.67,183.46H672.1a1.4,1.4,0,0,0-1.4,1.4h0V217a1.4,1.4,0,0,0,1.4,1.4H734a1.4,1.4,0,0,0,1.41-1.4h0V190.18a6.74,6.74,0,0,0-6.73-6.72Zm3.91,32.08H673.51V186.27h55.16a3.91,3.91,0,0,1,3.91,3.91Z" style="fill:#143c86"/><path d="M698.3,126.47a10,10,0,0,0-14.09,1c-.25.3-.49.61-.71.93a8.34,8.34,0,0,0-1.18,5.34l5.39,8.18c5,3.16,10.17,3.17,13.16-1,3.42-4.71,2.36-10.44-2.57-14.54Z" style="fill:#6ebdff"/><path d="M699.2,125.39a11.41,11.41,0,0,0-9.23-2.6,11.15,11.15,0,0,0-7.66,4.9,9.76,9.76,0,0,0-1.39,6.24,1.41,1.41,0,0,0,2.8-.3,6.86,6.86,0,0,1,1-4.44,8.27,8.27,0,0,1,5.72-3.63,8.68,8.68,0,0,1,7,2c4.36,3.63,5.28,8.59,2.33,12.64-2.39,3.29-6.6,3.51-11.27.58a1.41,1.41,0,1,0-1.56,2.34l.07,0a14.5,14.5,0,0,0,7.65,2.49,8.85,8.85,0,0,0,7.39-3.8c3.82-5.26,2.69-11.87-2.81-16.45Z" style="fill:#143c86"/><path d="M564.75,132.46a6.14,6.14,0,0,0-8.11-3l-16.76,7.65a6.14,6.14,0,0,0-3,8.14l0,.08c4.72,10,34,68.09,45.1,70.83,29.4,7.24,44.64,8.43,51.4,9.66l6.86-30.32c-.17,0-21.56-3.34-46.8-9.42-1.43-1.74-24.17-44.14-28.68-53.66Z" style="fill:#fff"/><path d="M640.39,194.15c-.49-.08-21.25-3.31-46.11-9.27-2.82-4.51-23.74-43.5-28.26-53a7.59,7.59,0,0,0-10-3.63l-16.75,7.65a7.56,7.56,0,0,0-3.75,10l.05.09c2.73,5.79,11.27,22.75,20.21,38.24,12.21,21.17,20.66,32.08,25.83,33.35a411.77,411.77,0,0,0,45.42,8.77c2.53.35,4.53.63,6.06.91a1.07,1.07,0,0,0,.25,0,1.41,1.41,0,0,0,.25-2.79c-1.59-.29-3.61-.57-6.17-.93a409.49,409.49,0,0,1-45.14-8.72c-2.43-.6-8.8-5.56-24.07-32-8.89-15.41-17.38-32.28-20.1-38a4.75,4.75,0,0,1,2.27-6.32l.06,0,16.75-7.65a4.76,4.76,0,0,1,6.26,2.28c4.34,9.14,27.26,52,28.86,54a1.45,1.45,0,0,0,.76.47c25,6,46.56,9.44,47.07,9.46a1.4,1.4,0,0,0,.22-2.8Z" style="fill:#143c86"/><path d="M632.19,217.36a409.71,409.71,0,0,1-41.7-8.23c-1.26-.3-4.26-2-10.28-10.28a247,247,0,0,1-13.79-21.75c-8.89-15.41-17.38-32.27-20.1-38a1.4,1.4,0,1,0-2.57,1.13l0,.07c2.73,5.78,11.27,22.74,20.21,38.23,12.21,21.17,20.66,32.08,25.83,33.35a412.31,412.31,0,0,0,42,8.29,1.41,1.41,0,0,0,.4-2.79Z" style="fill:#c5edf9"/><path d="M703.3,371.66l-2.46-76.1a1.4,1.4,0,0,0-1.4-1.36H654.67a1.41,1.41,0,1,0-.07,2.81h43.48l2.42,74.84a1.23,1.23,0,0,0,0,.2l9.06,51.65H686.91L676,372.2l-2.64-30.35a1.41,1.41,0,0,0-2.8.25l2.65,30.42a1.1,1.1,0,0,0,0,.18l11.2,52.7a1.41,1.41,0,0,0,1.37,1.11h25.48a1.41,1.41,0,0,0,1.41-1.41,1.94,1.94,0,0,0,0-.24Z" style="fill:#143c86"/><path d="M678.45,319.42a1.4,1.4,0,0,0-2,.35c-4.93,7-14.53,8.54-14.63,8.55a1.4,1.4,0,0,0-1.18,1.18l-6.91,44.74s0,.06,0,.1l-4.08,49.35h-22.9L629,374.57,633,297h29.11a1.41,1.41,0,0,0,0-2.81H631.63a1.4,1.4,0,0,0-1.4,1.33l-4,78.9L623.92,425a1.4,1.4,0,0,0,1.34,1.47H651a1.4,1.4,0,0,0,1.4-1.29l4.18-50.59,6.75-43.71c2.84-.62,10.81-2.89,15.48-9.53a1.39,1.39,0,0,0-.34-1.95Z" style="fill:#143c86"/><path d="M638.25,231.28a1.41,1.41,0,0,0-2.8.22l4.92,61.15a1.41,1.41,0,0,0,1.4,1.29h.12a1.39,1.39,0,0,0,1.28-1.51h0Z" style="fill:#c5edf9"/><path d="M593.93,473.84l20.89,164.83H802.19l-74.6-164.83Z" style="fill:#e0f4fc"/><path d="M728.87,473.26a1.4,1.4,0,0,0-1.28-.83H593.93a1.41,1.41,0,0,0-1.41,1.41c0,.06,0,.11,0,.17l20.9,164.84a1.4,1.4,0,0,0,1.39,1.23H802.19a1.41,1.41,0,0,0,1.41-1.4,1.44,1.44,0,0,0-.13-.58Zm-112.81,164-20.53-162H726.69l73.32,162Z" style="fill:#143c86"/><path d="M610.43,473.84,685,638.67h145l-74.6-164.83Z" style="fill:#fff"/><path d="M756.73,473.26a1.4,1.4,0,0,0-1.28-.83h-145a1.41,1.41,0,0,0-1.41,1.39,1.54,1.54,0,0,0,.13.6l74.6,164.83a1.4,1.4,0,0,0,1.28.83H830a1.41,1.41,0,0,0,1.41-1.4,1.43,1.43,0,0,0-.12-.58Zm-70.8,164-73.32-162H754.54l73.33,162Z" style="fill:#143c86"/><path d="M610.43,473.84,685,638.67h145l-74.6-164.83Z" style="fill:#fff"/><path d="M756.73,473.26a1.4,1.4,0,0,0-1.28-.83h-145a1.41,1.41,0,0,0-1.41,1.39,1.54,1.54,0,0,0,.13.6l74.6,164.83a1.4,1.4,0,0,0,1.28.83H830a1.41,1.41,0,0,0,1.41-1.4,1.43,1.43,0,0,0-.12-.58Zm-70.8,164-73.32-162H754.54l73.33,162Z" style="fill:#143c86"/><path d="M812.84,604.3H670.94a1.41,1.41,0,0,0,0,2.81h141.9a1.41,1.41,0,0,0,0-2.81Zm-14.74-33H655.79a1.41,1.41,0,0,0,0,2.81h142.3a1.41,1.41,0,0,0,0-2.81Zm-16-33H640.63a1.41,1.41,0,0,0,0,2.81h141.5a1.41,1.41,0,1,0,0-2.81Zm-9.83-33h-145a1.41,1.41,0,0,0,0,2.81h145a1.41,1.41,0,0,0,0-2.81Z" style="fill:#e0f4fc"/><path d="M756.73,473.26a1.4,1.4,0,0,0-1.28-.83h-145a1.41,1.41,0,0,0-1.41,1.39,1.54,1.54,0,0,0,.13.6l74.6,164.83a1.4,1.4,0,0,0,1.28.83H830a1.41,1.41,0,0,0,1.41-1.4,1.43,1.43,0,0,0-.12-.58Zm-70.8,164-73.32-162H754.54l73.33,162Z" style="fill:#143c86"/><path d="M920.77,659.18H181a1.41,1.41,0,1,0,0,2.81H920.77a1.41,1.41,0,0,0,0-2.81Zm-51.09,21.91H792.8a1.41,1.41,0,0,0,0,2.81h76.88a1.41,1.41,0,0,0,1.39-1.42A1.39,1.39,0,0,0,869.68,681.09Zm-113.62,0H495.77a1.41,1.41,0,0,0,0,2.81H756.06a1.41,1.41,0,1,0,0-2.81Zm-298.09,0H297.34a1.41,1.41,0,0,0-1.42,1.39,1.42,1.42,0,0,0,1.4,1.42H458a1.41,1.41,0,1,0,0-2.81Zm-208.16,0H128.14a1.39,1.39,0,0,0-1.41,1.39,1.41,1.41,0,0,0,1.4,1.42H249.81a1.41,1.41,0,0,0,0-2.81Z" style="fill:#143c86"/></g></g></svg>