<svg xmlns="http://www.w3.org/2000/svg" viewBox="0 0 1395 1253"><path fill="#a2dfff" d="M900 966L0 1013 13 53l881-42 6 955z"/><path fill="#fff" d="M13 52l881-42 43 894-881 42z"/><path d="M56 958a11 11 0 0 1-8-3 11 11 0 0 1-3-7L2 53a11 11 0 0 1 3-7 11 11 0 0 1 7-4L893 0a11 11 0 0 1 11 10l43 895a11 11 0 0 1-10 11L56 958zM24 63l42 873 859-41-42-873z" fill="#1977cc"/><path fill="#a2dfff" d="M1177 1112l-87 121-43-141 130 20z"/><path d="M1177 1112l-87 121-43-141 130 20m18 1a18 18 0 0 0-15-20l-130-19a18 18 0 0 0-21 17 18 18 0 0 0 0 7l43 141a18 18 0 0 0 33 5l87-122a18 18 0 0 0 3-9z" fill="#a2dfff"/><path fill="#a2dfff" d="M1132 1174l-63-9 21 68 42-59zM1232 39c-15-2-28 6-30 18l-155 1035 130 20L1332 77c2-12-8-24-22-26z"/><path d="M1332 75v2l-155 1035-130-20L1202 57c2-12 15-20 30-18l78 12c13 2 23 13 22 24m19 2c1-22-16-41-39-45l-78-11c-24-4-47 11-50 34l-155 1034v2a18 18 0 0 0 15 19l130 20a18 18 0 0 0 21-16L1350 80l1-3z" fill="#a2dfff"/><path d="M1232 39c-15-2-28 6-30 18l-155 1035 130 20L1332 77c2-12-8-24-22-26z" fill="#a2dfff"/><path d="M1332 75v2l-155 1035-130-20L1202 57c2-12 15-20 30-18l78 12c13 2 23 13 22 24m19 2c1-22-16-41-39-45l-78-11c-24-4-47 11-50 34l-155 1034v2a18 18 0 0 0 15 19l130 20a18 18 0 0 0 21-16L1350 80l1-3z" fill="#a2dfff"/><path d="M1232 39c-15-2-28 6-30 18l-5 37 130 20 5-37c2-12-8-24-22-26z" fill="#a2dfff"/><path d="M1332 75v2l-5 37-130-20 5-37c2-12 15-20 30-18l78 12c13 2 23 13 22 24m19 2c1-22-16-41-39-45l-78-11c-24-4-47 11-50 34l-6 37v1a18 18 0 0 0 16 20l130 19a18 18 0 0 0 21-15l6-37v-3zM1140 1173l-75-12M1056 1161v-1a9 9 0 0 1 10-8l76 11c5 1 8 6 8 11a9 9 0 0 1-11 8l-75-12a9 9 0 0 1-8-9zM1236 113l-148 987" fill="#a2dfff"/><path d="M1078 1100v-1l148-988a9 9 0 0 1 11-8c5 1 8 6 8 11l-148 988a9 9 0 0 1-19-2zM1284 120l-148 988M1127 1107v-1l148-987a9 9 0 0 1 11-8c5 0 8 5 7 10l-148 988a9 9 0 0 1-18-2z" fill="#a2dfff"/><path fill="#fff" d="M1218 1110l-87 121-43-141 130 20z"/><path d="M1088 1090l130 20-87 121-43-141m0-21a21 21 0 0 0-20 27l42 142a22 22 0 0 0 17 15 21 21 0 0 0 4 0 21 21 0 0 0 17-9l88-122a21 21 0 0 0-15-34l-129-19a21 21 0 0 0-4 0z" fill="#6ebdff"/><path fill="#e0f4fc" d="M1173 1172l-63-9 21 68 42-59z"/><path d="M1273 37c-15-2-28 6-30 18l-155 1035 130 20L1373 75c2-12-8-24-22-26z" fill="#a2dfff"/><path d="M1268 37a31 31 0 0 1 5 0l78 12c14 2 24 14 22 26l-155 1035-130-20L1243 55c2-11 13-18 25-18m0-22c-23 0-43 16-46 37l-155 1035a21 21 0 0 0 18 24l130 20a21 21 0 0 0 16-4 22 22 0 0 0 9-14L1395 78a42 42 0 0 0-11-34 50 50 0 0 0-30-17l-78-11a52 52 0 0 0-8-1z" fill="#6ebdff"/><path d="M1273 37c-15-2-28 6-30 18l-155 1035 130 20L1373 75c2-12-8-24-22-26z" fill="#e0f4fc"/><path d="M1268 37a31 31 0 0 1 5 0l78 12c14 2 24 14 22 26l-155 1035-130-20L1243 55c2-11 13-18 25-18m0-22c-23 0-43 16-46 37l-155 1035a21 21 0 0 0 18 24l130 20a21 21 0 0 0 16-4 22 22 0 0 0 9-14L1395 78a42 42 0 0 0-11-34 50 50 0 0 0-30-17l-78-11a52 52 0 0 0-8-1z" fill="#6ebdff"/><path d="M1273 37c-15-2-28 6-30 18l-5 37 130 20 6-37c1-12-9-24-23-26z" fill="#fff"/><path d="M1268 37a31 31 0 0 1 5 0l78 12c14 2 24 14 22 26l-5 37-130-20 5-37c2-11 13-18 25-18m0-22c-23 0-43 16-46 37l-5 37a21 21 0 0 0 18 25l130 19a21 21 0 0 0 24-18l6-37a42 42 0 0 0-11-34 50 50 0 0 0-30-17l-78-11a52 52 0 0 0-8-1z" fill="#6ebdff"/><path fill="#a2dfff" d="M1182 1171l-76-12"/><path d="M1182 1181a10 10 0 0 1-2 0l-75-11a11 11 0 1 1 3-21l75 11a11 11 0 0 1-1 21z" fill="#6ebdff"/><path fill="#a2dfff" d="M1277 111l-148 987"/><path d="M1129 1109a11 11 0 0 1-2 0 11 11 0 0 1-9-12l148-988a11 11 0 1 1 21 3l-148 988a11 11 0 0 1-10 9z" fill="#6ebdff"/><path fill="#a2dfff" d="M1325 118l-148 988"/><path d="M1177 1116a11 11 0 0 1-1 0 11 11 0 0 1-9-12l148-988a11 11 0 1 1 21 3l-148 988a11 11 0 0 1-11 9z" fill="#6ebdff"/><path d="M192 263a6 6 0 0 1-2-7 51 51 0 0 1 29-24 45 45 0 0 1 31 1 93 93 0 0 1 47-22 82 82 0 0 1 85 43 91 91 0 0 1 11 43 6 6 0 1 1-12 0 80 80 0 0 0-9-38 71 71 0 0 0-27-28 76 76 0 0 0-90 13 6 6 0 0 1-7 1 33 33 0 0 0-26-2 40 40 0 0 0-22 18 6 6 0 0 1-8 2zM805 598a6 6 0 0 1-2-4 44 44 0 0 0-22-35h-1l-1-1a6 6 0 0 1-3-4 63 63 0 0 0-105-46 6 6 0 1 1-8-8 74 74 0 0 1 124 50 56 56 0 0 1 27 43 6 6 0 0 1-9 5z" fill="#c5edf9"/><path d="M779 531a6 6 0 0 1-3-8 45 45 0 0 0-29-63 6 6 0 0 1-5-5 45 45 0 0 0-47-39 6 6 0 1 1 0-11 56 56 0 0 1 58 45 56 56 0 0 1 33 78 6 6 0 0 1-7 3zM270 807a6 6 0 0 1-3-8l37-63a6 6 0 0 1 10 6l-37 63a6 6 0 0 1-7 2zM210 732a6 6 0 0 1-1-2 6 6 0 0 1 1-8l56-43a6 6 0 1 1 7 9l-56 43a6 6 0 0 1-7 1zM363 827a6 6 0 0 1-3-6l10-70a6 6 0 1 1 11 1l-9 71a6 6 0 0 1-7 5 6 6 0 0 1-2-1zM452 616l-26-15c1 9-2 15-8 26-14 25-54 27-56 28a7 7 0 0 1-6-4c-1-2-18-37-4-62 7-11 12-15 20-19l-27-16c-12 8-19 18-28 33-11 19-14 46-7 78a205 205 0 0 0 15 41 7 7 0 0 0 6 3 204 204 0 0 0 43-8c30-10 52-25 64-45 8-15 13-26 14-40zM250 560a6 6 0 0 1-2-2c0-1-9-16-8-43 0-16 4-32 10-49 8-22 21-44 37-67 16-20 34-35 56-43 22-9 40-8 49-6a6 6 0 1 1-2 11c-24-4-64 5-93 45-57 77-47 126-41 141l21-13c20-12 38-19 51-22a6 6 0 1 1 2 11c-29 6-73 36-73 37a6 6 0 0 1-6 0h-1zM495 701h-1a6 6 0 0 1-2-6s4-53-5-82a6 6 0 1 1 11-3c4 13 6 31 6 55l-1 25c7-1 18-5 31-13 19-12 47-38 71-93 19-46 8-84-8-103a6 6 0 0 1 9-8c18 22 31 65 9 115-11 26-24 48-38 66-12 14-25 25-38 34a83 83 0 0 1-41 14 6 6 0 0 1-3-1z" fill="#c5edf9"/><path d="M443 624l-101-58a40 40 0 0 1-18-46c5-19 22-57 37-91l20-47c10-28 20-51 31-69 60-104 186-139 191-141a40 40 0 0 1 50 29c1 5 34 132-26 236-10 18-25 38-45 61l-30 41c-22 30-46 64-60 78a40 40 0 0 1-49 7zm185-438a29 29 0 0 0-22-3c-5 2-127 36-184 136-10 17-20 39-30 67l-21 48c-14 31-31 71-36 89a29 29 0 0 0 13 33l101 58a29 29 0 0 0 35-5c13-13 38-48 59-76l31-42c19-23 33-42 43-59 58-100 26-223 25-228a29 29 0 0 0-14-18z" fill="#c5edf9"/><path d="M372 552a33 33 0 0 1-15-38c4-13 15-39 25-63a6 6 0 0 1 11 5c-11 25-22 49-25 61a22 22 0 0 0 10 25 6 6 0 1 1-6 10zM462 474a78 78 0 1 1 106-28 78 78 0 0 1-106 28zm72-124a66 66 0 1 0 24 90 66 66 0 0 0-24-90z" fill="#c5edf9"/></svg>